<svg width="620" height="291" viewBox="0 0 620 291" fill="none" xmlns="http://www.w3.org/2000/svg">
<rect width="620" height="291" fill="#E9E8E1"/>
<path d="M67.408 45V33.8H75.024V35.08H68.848V38.264H72.368C74.352 38.264 75.808 39.704 75.808 41.624C75.808 43.576 74.352 45 72.368 45H67.408ZM68.848 43.736H72.256C73.456 43.736 74.336 42.856 74.336 41.64C74.336 40.424 73.456 39.528 72.256 39.528H68.848V43.736ZM82.5339 43.432C82.1339 44.456 81.0459 45.176 79.6539 45.176C78.0699 45.176 77.0619 44.264 77.0619 42.936C77.0619 41.608 77.9899 40.872 79.4779 40.584L81.1579 40.248C82.1659 40.04 82.4859 39.768 82.4859 39.272C82.4859 38.44 81.7819 37.88 80.6939 37.88C79.4939 37.88 78.7579 38.472 78.6459 39.496L77.3019 39.4C77.5099 37.656 78.9179 36.776 80.6939 36.776C82.5339 36.776 83.8619 37.72 83.8619 39.576V43.608C83.8619 43.896 84.0379 44.072 84.3259 44.072C84.4219 44.072 84.5659 44.056 84.6779 44.024V45.016C84.4219 45.096 84.2299 45.144 83.9419 45.144C83.0939 45.144 82.5979 44.728 82.5499 43.96L82.5339 43.432ZM78.4699 42.856C78.4699 43.528 78.9339 44.104 79.9579 44.104C81.4459 44.104 82.5179 42.952 82.5179 41.384V40.552H82.5019C82.2299 40.92 81.8459 41.112 81.1099 41.272L79.7499 41.576C78.9659 41.752 78.4699 42.168 78.4699 42.856ZM88.9926 45H87.6326V38.12H84.9126V36.968H91.7126V38.12H88.9926V45ZM97.7058 43.432C97.3058 44.456 96.2178 45.176 94.8258 45.176C93.2418 45.176 92.2338 44.264 92.2338 42.936C92.2338 41.608 93.1618 40.872 94.6498 40.584L96.3298 40.248C97.3378 40.04 97.6578 39.768 97.6578 39.272C97.6578 38.44 96.9538 37.88 95.8658 37.88C94.6658 37.88 93.9298 38.472 93.8178 39.496L92.4738 39.4C92.6818 37.656 94.0898 36.776 95.8658 36.776C97.7058 36.776 99.0338 37.72 99.0338 39.576V43.608C99.0338 43.896 99.2098 44.072 99.4978 44.072C99.5938 44.072 99.7378 44.056 99.8498 44.024V45.016C99.5938 45.096 99.4018 45.144 99.1138 45.144C98.2658 45.144 97.7698 44.728 97.7218 43.96L97.7058 43.432ZM93.6418 42.856C93.6418 43.528 94.1058 44.104 95.1298 44.104C96.6178 44.104 97.6898 42.952 97.6898 41.384V40.552H97.6738C97.4018 40.92 97.0178 41.112 96.2818 41.272L94.9218 41.576C94.1378 41.752 93.6418 42.168 93.6418 42.856ZM102.889 48.04H101.529V36.968H102.889V38.408C103.449 37.4 104.409 36.776 105.705 36.776C107.737 36.776 109.209 38.44 109.209 40.968C109.209 43.56 107.737 45.176 105.705 45.176C104.409 45.176 103.449 44.568 102.889 43.56V48.04ZM102.873 40.984C102.873 42.824 103.977 44.04 105.385 44.04C106.857 44.04 107.801 42.84 107.801 40.984C107.801 39.112 106.857 37.912 105.385 37.912C103.977 37.912 102.873 39.112 102.873 40.984ZM114.578 36.776C116.738 36.776 118.434 38.2 118.29 41.352H112.066C112.194 43.032 113.154 44.072 114.594 44.072C115.81 44.072 116.674 43.448 116.85 42.44L118.21 42.52C117.89 44.216 116.514 45.176 114.594 45.176C112.274 45.176 110.674 43.432 110.674 40.968C110.674 38.536 112.306 36.776 114.578 36.776ZM112.098 40.312H116.898C116.754 38.6 115.714 37.88 114.578 37.88C113.218 37.88 112.306 38.808 112.098 40.312ZM124.985 45V41.96H123.017L121.017 45H119.529L121.689 41.816C120.409 41.512 119.737 40.632 119.737 39.448C119.737 38.008 120.857 36.968 122.473 36.968H126.329V45H124.985ZM121.097 39.48C121.097 40.312 121.721 40.872 122.569 40.872H124.985V38.056H122.569C121.721 38.056 121.097 38.648 121.097 39.48Z" fill="black"/>
<path d="M33.25 34H56V45H33.25V34Z" fill="black"/>
<path d="M30 36.1429H31.625V42.8571H30V36.1429Z" fill="black"/>
<line x1="30.5" y1="88" x2="30.5" y2="155" stroke="black"/>
<path d="M66.336 98.728H62.848V103H61.408V91.8H66.336C68.4 91.8 69.904 93.272 69.904 95.256C69.904 97.256 68.4 98.728 66.336 98.728ZM62.848 97.464H66.272C67.52 97.464 68.432 96.52 68.432 95.272C68.432 94.008 67.52 93.064 66.272 93.064H62.848V97.464ZM76.237 101.432C75.837 102.456 74.749 103.176 73.357 103.176C71.773 103.176 70.765 102.264 70.765 100.936C70.765 99.608 71.693 98.872 73.181 98.584L74.861 98.248C75.869 98.04 76.189 97.768 76.189 97.272C76.189 96.44 75.485 95.88 74.397 95.88C73.197 95.88 72.461 96.472 72.349 97.496L71.005 97.4C71.213 95.656 72.621 94.776 74.397 94.776C76.237 94.776 77.565 95.72 77.565 97.576V101.608C77.565 101.896 77.741 102.072 78.029 102.072C78.125 102.072 78.269 102.056 78.381 102.024V103.016C78.125 103.096 77.933 103.144 77.645 103.144C76.797 103.144 76.301 102.728 76.253 101.96L76.237 101.432ZM72.173 100.856C72.173 101.528 72.637 102.104 73.661 102.104C75.149 102.104 76.221 100.952 76.221 99.384V98.552H76.205C75.933 98.92 75.549 99.112 74.813 99.272L73.453 99.576C72.669 99.752 72.173 100.168 72.173 100.856ZM85.4365 97.896C85.3085 96.712 84.5405 95.912 83.3885 95.912C81.9325 95.912 80.9405 97.112 80.9405 98.984C80.9405 100.824 81.9325 102.024 83.3885 102.024C84.5725 102.024 85.3885 101.304 85.5005 100.056L86.8925 100.136C86.6845 102.04 85.3405 103.176 83.3885 103.176C81.1805 103.176 79.5485 101.416 79.5485 98.968C79.5485 96.568 81.1805 94.776 83.3885 94.776C85.3725 94.776 86.6845 95.976 86.8445 97.816L85.4365 97.896ZM94.0146 97.896C93.8866 96.712 93.1186 95.912 91.9666 95.912C90.5106 95.912 89.5186 97.112 89.5186 98.984C89.5186 100.824 90.5106 102.024 91.9666 102.024C93.1506 102.024 93.9666 101.304 94.0786 100.056L95.4706 100.136C95.2626 102.04 93.9186 103.176 91.9666 103.176C89.7586 103.176 88.1266 101.416 88.1266 98.968C88.1266 96.568 89.7586 94.776 91.9666 94.776C93.9506 94.776 95.2626 95.976 95.4226 97.816L94.0146 97.896ZM100.071 103H98.7108V96.12H95.9908V94.968H102.791V96.12H100.071V103ZM107.202 103.176C104.962 103.176 103.33 101.448 103.33 98.968C103.33 96.504 104.962 94.776 107.202 94.776C109.442 94.776 111.074 96.504 111.074 98.968C111.074 101.448 109.442 103.176 107.202 103.176ZM104.722 98.984C104.722 100.856 105.698 102.04 107.202 102.04C108.706 102.04 109.682 100.856 109.682 98.984C109.682 97.096 108.706 95.912 107.202 95.912C105.698 95.912 104.722 97.096 104.722 98.984ZM117.813 103V99.96H115.845L113.845 103H112.357L114.517 99.816C113.237 99.512 112.565 98.632 112.565 97.448C112.565 96.008 113.685 94.968 115.301 94.968H119.157V103H117.813ZM113.925 97.48C113.925 98.312 114.549 98.872 115.397 98.872H117.813V96.056H115.397C114.549 96.056 113.925 96.648 113.925 97.48ZM122.905 103H121.545V94.968H122.905V98.216H126.873V94.968H128.233V103H126.873V99.4H122.905V103ZM132.127 103H130.623V94.968H131.951V101.32L135.935 94.968H137.439V103H136.127V96.664L132.127 103ZM143.296 94.776C145.456 94.776 147.152 96.2 147.008 99.352H140.784C140.912 101.032 141.872 102.072 143.312 102.072C144.528 102.072 145.392 101.448 145.568 100.44L146.928 100.52C146.608 102.216 145.232 103.176 143.312 103.176C140.992 103.176 139.392 101.432 139.392 98.968C139.392 96.536 141.024 94.776 143.296 94.776ZM140.816 98.312H145.616C145.472 96.6 144.432 95.88 143.296 95.88C141.936 95.88 141.024 96.808 140.816 98.312ZM148.855 102.136C148.855 101.741 148.951 101.464 149.143 101.304C149.335 101.144 149.564 101.064 149.831 101.064C150.108 101.064 150.343 101.144 150.535 101.304C150.738 101.464 150.839 101.741 150.839 102.136C150.839 102.52 150.738 102.797 150.535 102.968C150.343 103.139 150.108 103.224 149.831 103.224C149.564 103.224 149.335 103.139 149.143 102.968C148.951 102.797 148.855 102.52 148.855 102.136ZM148.855 95.288C148.855 94.8827 148.951 94.6 149.143 94.44C149.335 94.28 149.564 94.2 149.831 94.2C150.108 94.2 150.343 94.28 150.535 94.44C150.738 94.6 150.839 94.8827 150.839 95.288C150.839 95.672 150.738 95.9493 150.535 96.12C150.343 96.2907 150.108 96.376 149.831 96.376C149.564 96.376 149.335 96.2907 149.143 96.12C148.951 95.9493 148.855 95.672 148.855 95.288Z" fill="black"/>
<path d="M66.7422 122.539V123.398H66.6094C65.8646 123.404 65.2214 123.529 64.6797 123.773C64.138 124.013 63.6849 124.336 63.3203 124.742C62.9505 125.159 62.6667 125.651 62.4688 126.219C62.2708 126.781 62.1536 127.37 62.1172 127.984C62.263 127.771 62.4375 127.576 62.6406 127.398C62.8438 127.216 63.0677 127.06 63.3125 126.93C63.5521 126.805 63.8099 126.708 64.0859 126.641C64.362 126.568 64.6484 126.531 64.9453 126.531C65.4922 126.531 65.9688 126.635 66.375 126.844C66.7865 127.052 67.1302 127.331 67.4062 127.68C67.6771 128.029 67.8802 128.43 68.0156 128.883C68.151 129.331 68.2188 129.792 68.2188 130.266C68.2188 130.766 68.1458 131.25 68 131.719C67.8594 132.188 67.6458 132.602 67.3594 132.961C67.0781 133.32 66.7266 133.609 66.3047 133.828C65.888 134.047 65.4036 134.156 64.8516 134.156C64.2786 134.156 63.7656 134.044 63.3125 133.82C62.8646 133.596 62.487 133.299 62.1797 132.93C61.8516 132.539 61.6016 132.086 61.4297 131.57C61.2578 131.055 61.1719 130.523 61.1719 129.977V128.977C61.1719 128.091 61.2786 127.237 61.4922 126.414C61.7057 125.586 62.0859 124.852 62.6328 124.211C63.0755 123.685 63.6276 123.276 64.2891 122.984C64.9557 122.693 65.7292 122.544 66.6094 122.539H66.7422ZM64.8047 127.344C64.5026 127.344 64.2083 127.391 63.9219 127.484C63.6406 127.573 63.3776 127.703 63.1328 127.875C62.8932 128.042 62.6823 128.245 62.5 128.484C62.3229 128.719 62.1927 128.982 62.1094 129.273V129.992C62.1094 130.482 62.1771 130.932 62.3125 131.344C62.4479 131.755 62.638 132.109 62.8828 132.406C63.1224 132.708 63.4089 132.943 63.7422 133.109C64.0807 133.276 64.4505 133.357 64.8516 133.352C65.2526 133.352 65.6042 133.266 65.9062 133.094C66.2083 132.922 66.4635 132.695 66.6719 132.414C66.8802 132.133 67.0365 131.81 67.1406 131.445C67.2448 131.076 67.2969 130.695 67.2969 130.305C67.2969 129.914 67.2448 129.542 67.1406 129.188C67.0365 128.828 66.8802 128.513 66.6719 128.242C66.4583 127.966 66.1953 127.747 65.8828 127.586C65.5703 127.424 65.2109 127.344 64.8047 127.344ZM78.0078 129.5C78.0078 130.141 77.9349 130.742 77.7891 131.305C77.6484 131.867 77.4349 132.359 77.1484 132.781C76.862 133.203 76.4948 133.539 76.0469 133.789C75.599 134.034 75.0651 134.156 74.4453 134.156C73.9401 134.156 73.487 134.076 73.0859 133.914C72.6849 133.747 72.3411 133.508 72.0547 133.195C71.6328 132.758 71.3255 132.216 71.1328 131.57C70.9453 130.924 70.8516 130.234 70.8516 129.5V127.125C70.8516 126.49 70.9245 125.885 71.0703 125.312C71.2161 124.74 71.4375 124.242 71.7344 123.82C72.026 123.398 72.3932 123.068 72.8359 122.828C73.2839 122.583 73.8151 122.461 74.4297 122.461C74.9349 122.461 75.3906 122.547 75.7969 122.719C76.2031 122.891 76.5469 123.13 76.8281 123.438C77.2292 123.859 77.5234 124.398 77.7109 125.055C77.9036 125.706 78.0026 126.396 78.0078 127.125V129.5ZM71.875 130.18L76.9297 125.625C76.862 125.271 76.7604 124.951 76.625 124.664C76.4948 124.372 76.3281 124.122 76.125 123.914C75.9219 123.706 75.6797 123.547 75.3984 123.438C75.1172 123.323 74.7943 123.266 74.4297 123.266C73.9609 123.266 73.5677 123.354 73.25 123.531C72.9375 123.708 72.6693 123.958 72.4453 124.281C72.2161 124.599 72.0469 124.997 71.9375 125.477C71.8333 125.956 71.7812 126.453 71.7812 126.969V128.961C71.7812 129.159 71.7891 129.362 71.8047 129.57C71.8203 129.773 71.8438 129.977 71.875 130.18ZM77.0781 129.648V127.805C77.0729 127.638 77.0651 127.435 77.0547 127.195C77.0443 126.956 77.026 126.737 77 126.539L71.9531 131.086C72.026 131.43 72.1302 131.745 72.2656 132.031C72.4062 132.312 72.5807 132.552 72.7891 132.75C72.9922 132.943 73.2292 133.094 73.5 133.203C73.776 133.307 74.0911 133.359 74.4453 133.359C74.9036 133.359 75.2943 133.266 75.6172 133.078C75.9453 132.891 76.2083 132.641 76.4062 132.328C76.6458 131.99 76.8151 131.589 76.9141 131.125C77.0182 130.661 77.0729 130.169 77.0781 129.648ZM92.9141 130.133H91.375V134H90.4297V125.547H91.375V129.289H92.8906L96.2812 125.547H97.4766L93.7266 129.648L97.8828 134H96.6406L92.9141 130.133ZM103.148 132.727L105.516 125.547H106.641V134H105.727V127.664L103.477 134H102.828L100.523 127.477V134H99.6094V125.547H100.789L103.148 132.727ZM120.641 129.406C120.641 128.807 120.682 128.219 120.766 127.641C120.849 127.057 120.966 126.497 121.117 125.961C121.263 125.43 121.44 124.924 121.648 124.445C121.862 123.961 122.102 123.518 122.367 123.117C122.628 122.711 122.909 122.349 123.211 122.031C123.513 121.714 123.831 121.451 124.164 121.242L124.391 121.883C124.12 122.076 123.867 122.31 123.633 122.586C123.404 122.857 123.195 123.154 123.008 123.477C122.779 123.862 122.57 124.289 122.383 124.758C122.201 125.227 122.049 125.716 121.93 126.227C121.81 126.716 121.719 127.227 121.656 127.758C121.599 128.289 121.57 128.831 121.57 129.383V129.539C121.57 130.07 121.599 130.596 121.656 131.117C121.714 131.638 121.797 132.141 121.906 132.625C122.021 133.109 122.159 133.576 122.32 134.023C122.487 134.471 122.674 134.885 122.883 135.266C123.091 135.641 123.32 135.979 123.57 136.281C123.82 136.589 124.094 136.849 124.391 137.062L124.164 137.672C123.826 137.458 123.503 137.193 123.195 136.875C122.893 136.562 122.612 136.203 122.352 135.797C122.091 135.396 121.854 134.956 121.641 134.477C121.432 133.997 121.255 133.49 121.109 132.953C120.958 132.422 120.841 131.867 120.758 131.289C120.68 130.711 120.641 130.122 120.641 129.523V129.406ZM135.391 134H134.453V130.125H129.672V134H128.742V125.547H129.672V129.328H134.453V125.547H135.391V134ZM144.195 134C144.138 133.812 144.094 133.612 144.062 133.398C144.036 133.185 144.018 132.969 144.008 132.75C143.846 132.964 143.656 133.159 143.438 133.336C143.224 133.508 142.99 133.654 142.734 133.773C142.474 133.898 142.198 133.992 141.906 134.055C141.62 134.122 141.32 134.156 141.008 134.156C140.617 134.156 140.25 134.099 139.906 133.984C139.562 133.87 139.266 133.708 139.016 133.5C138.766 133.292 138.568 133.042 138.422 132.75C138.276 132.453 138.203 132.122 138.203 131.758C138.203 131.273 138.31 130.862 138.523 130.523C138.742 130.185 139.034 129.906 139.398 129.688C139.758 129.479 140.177 129.328 140.656 129.234C141.135 129.135 141.638 129.083 142.164 129.078H144V128.125C143.995 127.807 143.932 127.529 143.812 127.289C143.693 127.044 143.529 126.841 143.32 126.68C143.112 126.518 142.865 126.396 142.578 126.312C142.297 126.224 141.992 126.18 141.664 126.18C141.362 126.18 141.073 126.219 140.797 126.297C140.521 126.375 140.276 126.487 140.062 126.633C139.854 126.779 139.682 126.958 139.547 127.172C139.417 127.38 139.349 127.617 139.344 127.883L138.406 127.875C138.422 127.516 138.518 127.185 138.695 126.883C138.872 126.581 139.109 126.318 139.406 126.094C139.703 125.875 140.047 125.703 140.438 125.578C140.833 125.453 141.255 125.391 141.703 125.391C142.151 125.391 142.57 125.448 142.961 125.562C143.352 125.677 143.693 125.846 143.984 126.07C144.271 126.305 144.497 126.594 144.664 126.938C144.836 127.281 144.924 127.682 144.93 128.141V132.227C144.93 132.513 144.953 132.799 145 133.086C145.052 133.372 145.115 133.646 145.188 133.906L145.195 134H144.195ZM141.109 133.32C141.438 133.326 141.75 133.289 142.047 133.211C142.344 133.128 142.617 133.013 142.867 132.867C143.117 132.721 143.339 132.547 143.531 132.344C143.724 132.141 143.88 131.914 144 131.664V129.805H142.297C141.833 129.81 141.393 129.849 140.977 129.922C140.56 129.995 140.203 130.125 139.906 130.312C139.667 130.464 139.477 130.651 139.336 130.875C139.201 131.094 139.133 131.359 139.133 131.672C139.133 131.927 139.185 132.156 139.289 132.359C139.393 132.562 139.534 132.734 139.711 132.875C139.888 133.021 140.096 133.133 140.336 133.211C140.581 133.284 140.839 133.32 141.109 133.32ZM164.219 134H163.281V126.359H158.508V134H157.57V125.547H164.219V134ZM166.734 129.648C166.734 129.076 166.82 128.531 166.992 128.016C167.164 127.5 167.411 127.049 167.734 126.664C168.057 126.273 168.451 125.964 168.914 125.734C169.378 125.505 169.906 125.391 170.5 125.391C171.089 125.391 171.615 125.505 172.078 125.734C172.547 125.964 172.945 126.271 173.273 126.656C173.591 127.047 173.836 127.5 174.008 128.016C174.18 128.531 174.268 129.076 174.273 129.648V129.906C174.268 130.479 174.18 131.023 174.008 131.539C173.841 132.049 173.596 132.5 173.273 132.891C172.951 133.276 172.557 133.583 172.094 133.812C171.63 134.042 171.104 134.156 170.516 134.156C169.922 134.156 169.391 134.044 168.922 133.82C168.453 133.591 168.06 133.281 167.742 132.891C167.414 132.505 167.164 132.055 166.992 131.539C166.82 131.023 166.734 130.479 166.734 129.906V129.648ZM167.664 129.906C167.664 130.354 167.727 130.786 167.852 131.203C167.977 131.62 168.159 131.987 168.398 132.305C168.638 132.628 168.935 132.885 169.289 133.078C169.643 133.266 170.052 133.359 170.516 133.359C170.974 133.359 171.378 133.266 171.727 133.078C172.076 132.885 172.372 132.628 172.617 132.305C172.852 131.982 173.029 131.615 173.148 131.203C173.273 130.786 173.339 130.354 173.344 129.906V129.648C173.339 129.206 173.273 128.776 173.148 128.359C173.023 127.943 172.844 127.576 172.609 127.258C172.365 126.935 172.065 126.677 171.711 126.484C171.362 126.292 170.958 126.195 170.5 126.195C170.036 126.195 169.63 126.292 169.281 126.484C168.932 126.677 168.638 126.935 168.398 127.258C168.159 127.576 167.977 127.943 167.852 128.359C167.727 128.776 167.664 129.206 167.664 129.648V129.906ZM183.367 125.547V134H182.422V126.359H178.797L178.727 129.281C178.721 129.557 178.711 129.844 178.695 130.141C178.685 130.438 178.661 130.732 178.625 131.023C178.583 131.393 178.518 131.742 178.43 132.07C178.341 132.398 178.221 132.688 178.07 132.938C177.883 133.271 177.633 133.531 177.32 133.719C177.008 133.901 176.622 133.995 176.164 134H175.828L175.836 133.148H176.141C176.443 133.143 176.693 133.068 176.891 132.922C177.094 132.771 177.258 132.56 177.383 132.289C177.477 132.086 177.549 131.857 177.602 131.602C177.659 131.346 177.701 131.076 177.727 130.789C177.753 130.534 177.768 130.279 177.773 130.023C177.779 129.763 177.784 129.516 177.789 129.281L177.875 125.547H183.367ZM193.047 134H192.109V130.125H187.328V134H186.398V125.547H187.328V129.328H192.109V125.547H193.047V134ZM195.562 129.648C195.562 129.076 195.648 128.531 195.82 128.016C195.992 127.5 196.24 127.049 196.562 126.664C196.885 126.273 197.279 125.964 197.742 125.734C198.206 125.505 198.734 125.391 199.328 125.391C199.917 125.391 200.443 125.505 200.906 125.734C201.375 125.964 201.773 126.271 202.102 126.656C202.419 127.047 202.664 127.5 202.836 128.016C203.008 128.531 203.096 129.076 203.102 129.648V129.906C203.096 130.479 203.008 131.023 202.836 131.539C202.669 132.049 202.424 132.5 202.102 132.891C201.779 133.276 201.385 133.583 200.922 133.812C200.458 134.042 199.932 134.156 199.344 134.156C198.75 134.156 198.219 134.044 197.75 133.82C197.281 133.591 196.888 133.281 196.57 132.891C196.242 132.505 195.992 132.055 195.82 131.539C195.648 131.023 195.562 130.479 195.562 129.906V129.648ZM196.492 129.906C196.492 130.354 196.555 130.786 196.68 131.203C196.805 131.62 196.987 131.987 197.227 132.305C197.466 132.628 197.763 132.885 198.117 133.078C198.471 133.266 198.88 133.359 199.344 133.359C199.802 133.359 200.206 133.266 200.555 133.078C200.904 132.885 201.201 132.628 201.445 132.305C201.68 131.982 201.857 131.615 201.977 131.203C202.102 130.786 202.167 130.354 202.172 129.906V129.648C202.167 129.206 202.102 128.776 201.977 128.359C201.852 127.943 201.672 127.576 201.438 127.258C201.193 126.935 200.893 126.677 200.539 126.484C200.19 126.292 199.786 126.195 199.328 126.195C198.865 126.195 198.458 126.292 198.109 126.484C197.76 126.677 197.466 126.935 197.227 127.258C196.987 127.576 196.805 127.943 196.68 128.359C196.555 128.776 196.492 129.206 196.492 129.648V129.906ZM208.852 132.727L211.219 125.547H212.344V134H211.43V127.664L209.18 134H208.531L206.227 127.477V134H205.312V125.547H206.492L208.852 132.727ZM224.57 131.578H225.523C225.523 131.844 225.607 132.096 225.773 132.336C225.945 132.576 226.164 132.768 226.43 132.914C226.69 133.06 226.987 133.172 227.32 133.25C227.654 133.323 227.979 133.359 228.297 133.359C228.625 133.359 228.956 133.328 229.289 133.266C229.628 133.198 229.932 133.091 230.203 132.945C230.432 132.81 230.62 132.641 230.766 132.438C230.917 132.229 230.992 131.982 230.992 131.695C230.992 131.435 230.943 131.211 230.844 131.023C230.745 130.836 230.607 130.68 230.43 130.555C230.299 130.461 230.151 130.385 229.984 130.328C229.818 130.266 229.643 130.216 229.461 130.18C229.273 130.148 229.083 130.128 228.891 130.117C228.698 130.102 228.51 130.094 228.328 130.094H226.727V129.273H228.328C228.505 129.273 228.685 129.268 228.867 129.258C229.055 129.242 229.234 129.216 229.406 129.18C229.589 129.143 229.763 129.094 229.93 129.031C230.096 128.964 230.242 128.88 230.367 128.781C230.513 128.667 230.625 128.529 230.703 128.367C230.786 128.201 230.828 128.005 230.828 127.781C230.828 127.495 230.755 127.253 230.609 127.055C230.464 126.852 230.273 126.685 230.039 126.555C229.799 126.43 229.526 126.339 229.219 126.281C228.917 126.219 228.609 126.188 228.297 126.188C227.99 126.188 227.674 126.224 227.352 126.297C227.029 126.37 226.74 126.479 226.484 126.625C226.24 126.766 226.044 126.938 225.898 127.141C225.753 127.339 225.677 127.568 225.672 127.828H224.727C224.753 127.417 224.872 127.06 225.086 126.758C225.299 126.451 225.573 126.195 225.906 125.992C226.234 125.794 226.607 125.646 227.023 125.547C227.44 125.443 227.865 125.391 228.297 125.391C228.724 125.391 229.141 125.432 229.547 125.516C229.953 125.599 230.315 125.729 230.633 125.906C230.977 126.099 231.25 126.349 231.453 126.656C231.661 126.964 231.766 127.341 231.766 127.789C231.766 128.055 231.711 128.297 231.602 128.516C231.492 128.729 231.341 128.919 231.148 129.086C231.003 129.216 230.833 129.331 230.641 129.43C230.453 129.523 230.255 129.602 230.047 129.664C230.302 129.727 230.542 129.81 230.766 129.914C230.99 130.013 231.185 130.138 231.352 130.289C231.534 130.456 231.677 130.656 231.781 130.891C231.885 131.12 231.938 131.383 231.938 131.68C231.938 132.117 231.831 132.49 231.617 132.797C231.409 133.104 231.135 133.359 230.797 133.562C230.448 133.771 230.055 133.919 229.617 134.008C229.18 134.102 228.74 134.148 228.297 134.148C227.849 134.148 227.398 134.099 226.945 134C226.497 133.896 226.096 133.729 225.742 133.5C225.419 133.297 225.148 133.036 224.93 132.719C224.716 132.401 224.596 132.021 224.57 131.578ZM240.289 134C240.232 133.812 240.188 133.612 240.156 133.398C240.13 133.185 240.112 132.969 240.102 132.75C239.94 132.964 239.75 133.159 239.531 133.336C239.318 133.508 239.083 133.654 238.828 133.773C238.568 133.898 238.292 133.992 238 134.055C237.714 134.122 237.414 134.156 237.102 134.156C236.711 134.156 236.344 134.099 236 133.984C235.656 133.87 235.359 133.708 235.109 133.5C234.859 133.292 234.661 133.042 234.516 132.75C234.37 132.453 234.297 132.122 234.297 131.758C234.297 131.273 234.404 130.862 234.617 130.523C234.836 130.185 235.128 129.906 235.492 129.688C235.852 129.479 236.271 129.328 236.75 129.234C237.229 129.135 237.732 129.083 238.258 129.078H240.094V128.125C240.089 127.807 240.026 127.529 239.906 127.289C239.786 127.044 239.622 126.841 239.414 126.68C239.206 126.518 238.958 126.396 238.672 126.312C238.391 126.224 238.086 126.18 237.758 126.18C237.456 126.18 237.167 126.219 236.891 126.297C236.615 126.375 236.37 126.487 236.156 126.633C235.948 126.779 235.776 126.958 235.641 127.172C235.51 127.38 235.443 127.617 235.438 127.883L234.5 127.875C234.516 127.516 234.612 127.185 234.789 126.883C234.966 126.581 235.203 126.318 235.5 126.094C235.797 125.875 236.141 125.703 236.531 125.578C236.927 125.453 237.349 125.391 237.797 125.391C238.245 125.391 238.664 125.448 239.055 125.562C239.445 125.677 239.786 125.846 240.078 126.07C240.365 126.305 240.591 126.594 240.758 126.938C240.93 127.281 241.018 127.682 241.023 128.141V132.227C241.023 132.513 241.047 132.799 241.094 133.086C241.146 133.372 241.208 133.646 241.281 133.906L241.289 134H240.289ZM237.203 133.32C237.531 133.326 237.844 133.289 238.141 133.211C238.438 133.128 238.711 133.013 238.961 132.867C239.211 132.721 239.432 132.547 239.625 132.344C239.818 132.141 239.974 131.914 240.094 131.664V129.805H238.391C237.927 129.81 237.487 129.849 237.07 129.922C236.654 129.995 236.297 130.125 236 130.312C235.76 130.464 235.57 130.651 235.43 130.875C235.294 131.094 235.227 131.359 235.227 131.672C235.227 131.927 235.279 132.156 235.383 132.359C235.487 132.562 235.628 132.734 235.805 132.875C235.982 133.021 236.19 133.133 236.43 133.211C236.674 133.284 236.932 133.32 237.203 133.32ZM244.117 137.25V125.547H244.984L245.016 126.711C245.146 126.518 245.294 126.346 245.461 126.195C245.628 126.039 245.81 125.906 246.008 125.797C246.232 125.667 246.477 125.568 246.742 125.5C247.008 125.427 247.286 125.391 247.578 125.391C248.125 125.391 248.602 125.497 249.008 125.711C249.414 125.919 249.755 126.208 250.031 126.578C250.333 126.979 250.555 127.453 250.695 128C250.841 128.542 250.917 129.107 250.922 129.695V129.859C250.922 130.411 250.852 130.948 250.711 131.469C250.576 131.99 250.372 132.448 250.102 132.844C249.836 133.24 249.492 133.557 249.07 133.797C248.654 134.036 248.161 134.156 247.594 134.156C247.307 134.156 247.029 134.122 246.758 134.055C246.487 133.992 246.237 133.901 246.008 133.781C245.82 133.682 245.643 133.565 245.477 133.43C245.315 133.294 245.172 133.143 245.047 132.977V137.25H244.117ZM249.984 129.695C249.984 129.247 249.93 128.805 249.82 128.367C249.716 127.93 249.549 127.539 249.32 127.195C249.107 126.904 248.841 126.667 248.523 126.484C248.206 126.302 247.82 126.211 247.367 126.211C247.102 126.211 246.849 126.25 246.609 126.328C246.375 126.401 246.159 126.505 245.961 126.641C245.758 126.781 245.578 126.951 245.422 127.148C245.271 127.341 245.146 127.56 245.047 127.805V131.922C245.141 132.141 245.266 132.339 245.422 132.516C245.578 132.693 245.753 132.841 245.945 132.961C246.154 133.086 246.38 133.185 246.625 133.258C246.87 133.326 247.122 133.359 247.383 133.359C247.846 133.359 248.24 133.26 248.562 133.062C248.891 132.865 249.159 132.607 249.367 132.289C249.581 131.961 249.734 131.583 249.828 131.156C249.927 130.729 249.979 130.297 249.984 129.859V129.695ZM260.055 125.547V134H259.125V130.594H256.148L254.023 134H252.984L255.195 130.461C254.622 130.31 254.161 130.026 253.812 129.609C253.469 129.188 253.297 128.674 253.297 128.07C253.297 127.669 253.378 127.315 253.539 127.008C253.701 126.695 253.922 126.43 254.203 126.211C254.479 125.997 254.807 125.836 255.188 125.727C255.573 125.612 255.982 125.552 256.414 125.547H260.055ZM254.227 128.086C254.227 128.341 254.271 128.573 254.359 128.781C254.453 128.984 254.586 129.159 254.758 129.305C254.924 129.456 255.125 129.576 255.359 129.664C255.594 129.747 255.857 129.789 256.148 129.789H259.125V126.344H256.414C256.107 126.349 255.818 126.391 255.547 126.469C255.281 126.547 255.052 126.659 254.859 126.805C254.661 126.956 254.505 127.138 254.391 127.352C254.281 127.565 254.227 127.81 254.227 128.086ZM263.219 133.203C263.474 132.995 263.69 132.74 263.867 132.438C264.044 132.13 264.19 131.784 264.305 131.398C264.414 131.013 264.5 130.586 264.562 130.117C264.625 129.648 264.672 129.143 264.703 128.602L264.844 125.547H269.828V133.203H270.703L270.633 136.484H269.773V134H263.422V136.484H262.609L262.539 133.203H263.219ZM265.633 128.602C265.607 129.044 265.57 129.479 265.523 129.906C265.477 130.333 265.409 130.742 265.32 131.133C265.232 131.523 265.117 131.893 264.977 132.242C264.841 132.591 264.672 132.911 264.469 133.203H268.898V126.422H265.734L265.633 128.602ZM276.523 134.156C275.94 134.156 275.406 134.047 274.922 133.828C274.438 133.609 274.023 133.312 273.68 132.938C273.331 132.557 273.06 132.117 272.867 131.617C272.674 131.112 272.578 130.576 272.578 130.008V129.672C272.578 129.073 272.674 128.513 272.867 127.992C273.065 127.466 273.336 127.01 273.68 126.625C274.013 126.245 274.409 125.945 274.867 125.727C275.326 125.503 275.82 125.391 276.352 125.391C276.909 125.391 277.404 125.492 277.836 125.695C278.268 125.893 278.633 126.167 278.93 126.516C279.227 126.87 279.451 127.284 279.602 127.758C279.753 128.227 279.831 128.729 279.836 129.266V129.836H273.508V130.094C273.529 130.542 273.612 130.958 273.758 131.344C273.904 131.729 274.109 132.07 274.375 132.367C274.635 132.669 274.951 132.911 275.32 133.094C275.695 133.271 276.109 133.359 276.562 133.359C277.083 133.365 277.555 133.268 277.977 133.07C278.398 132.872 278.76 132.586 279.062 132.211L279.648 132.656C279.331 133.104 278.906 133.466 278.375 133.742C277.844 134.018 277.227 134.156 276.523 134.156ZM276.352 126.195C275.966 126.195 275.615 126.268 275.297 126.414C274.979 126.555 274.701 126.75 274.461 127C274.221 127.255 274.023 127.557 273.867 127.906C273.711 128.255 273.604 128.633 273.547 129.039H278.906V128.953C278.906 128.609 278.844 128.268 278.719 127.93C278.599 127.591 278.432 127.294 278.219 127.039C278 126.784 277.734 126.581 277.422 126.43C277.109 126.273 276.753 126.195 276.352 126.195ZM287.445 129.523C287.445 130.122 287.404 130.711 287.32 131.289C287.242 131.867 287.128 132.422 286.977 132.953C286.831 133.49 286.651 133.997 286.438 134.477C286.229 134.956 285.995 135.396 285.734 135.797C285.469 136.203 285.182 136.562 284.875 136.875C284.573 137.193 284.255 137.458 283.922 137.672L283.695 137.062C283.992 136.854 284.268 136.594 284.523 136.281C284.784 135.969 285.018 135.62 285.227 135.234C285.435 134.849 285.62 134.432 285.781 133.984C285.948 133.531 286.083 133.055 286.188 132.555C286.297 132.081 286.378 131.589 286.43 131.078C286.482 130.568 286.51 130.055 286.516 129.539V129.383C286.51 128.82 286.477 128.279 286.414 127.758C286.352 127.232 286.271 126.745 286.172 126.297C286.047 125.771 285.893 125.273 285.711 124.805C285.529 124.336 285.328 123.909 285.109 123.523C284.911 123.174 284.693 122.859 284.453 122.578C284.219 122.292 283.966 122.049 283.695 121.852L283.922 121.242C284.255 121.451 284.573 121.714 284.875 122.031C285.182 122.349 285.466 122.711 285.727 123.117C285.992 123.523 286.229 123.966 286.438 124.445C286.646 124.919 286.823 125.424 286.969 125.961C287.115 126.492 287.229 127.044 287.312 127.617C287.401 128.185 287.445 128.781 287.445 129.406V129.523ZM309.375 128.641H300.898V127.844H309.375V128.641ZM325.25 134H324.32V123.82L321.164 125.164V124.266L325.117 122.625H325.25V134ZM331.102 128.172L331.648 122.625H337.336V123.531H332.445L332.055 127.336C332.331 127.143 332.651 126.992 333.016 126.883C333.385 126.768 333.779 126.711 334.195 126.711C334.711 126.711 335.174 126.802 335.586 126.984C336.003 127.167 336.359 127.419 336.656 127.742C336.948 128.065 337.172 128.453 337.328 128.906C337.484 129.354 337.562 129.844 337.562 130.375C337.562 130.901 337.495 131.393 337.359 131.852C337.224 132.31 337.018 132.708 336.742 133.047C336.461 133.391 336.107 133.661 335.68 133.859C335.258 134.057 334.758 134.156 334.18 134.156C333.711 134.156 333.273 134.086 332.867 133.945C332.466 133.799 332.115 133.594 331.812 133.328C331.505 133.057 331.255 132.727 331.062 132.336C330.875 131.945 330.755 131.503 330.703 131.008H331.602C331.669 131.539 331.839 131.971 332.109 132.305C332.38 132.638 332.729 132.865 333.156 132.984C333.453 133.104 333.753 133.167 334.055 133.172C334.362 133.172 334.667 133.115 334.969 133C335.302 132.891 335.578 132.711 335.797 132.461C336.021 132.211 336.19 131.911 336.305 131.562C336.419 131.234 336.477 130.893 336.477 130.539C336.477 130.185 336.43 129.836 336.336 129.492C336.237 129.164 336.083 128.872 335.875 128.617C335.667 128.362 335.409 128.164 335.102 128.023C334.857 127.883 334.599 127.781 334.328 127.719C334.062 127.651 333.781 127.633 333.484 127.664C333.177 127.69 332.885 127.763 332.609 127.883C332.339 127.997 332.081 128.164 331.836 128.383L331.102 128.172ZM347.07 129.5C347.07 130.141 346.997 130.742 346.852 131.305C346.711 131.867 346.497 132.359 346.211 132.781C345.924 133.203 345.557 133.539 345.109 133.789C344.661 134.034 344.128 134.156 343.508 134.156C343.003 134.156 342.549 134.076 342.148 133.914C341.747 133.747 341.404 133.508 341.117 133.195C340.695 132.758 340.388 132.216 340.195 131.57C340.008 130.924 339.914 130.234 339.914 129.5V127.125C339.914 126.49 339.987 125.885 340.133 125.312C340.279 124.74 340.5 124.242 340.797 123.82C341.089 123.398 341.456 123.068 341.898 122.828C342.346 122.583 342.878 122.461 343.492 122.461C343.997 122.461 344.453 122.547 344.859 122.719C345.266 122.891 345.609 123.13 345.891 123.438C346.292 123.859 346.586 124.398 346.773 125.055C346.966 125.706 347.065 126.396 347.07 127.125V129.5ZM340.938 130.18L345.992 125.625C345.924 125.271 345.823 124.951 345.688 124.664C345.557 124.372 345.391 124.122 345.188 123.914C344.984 123.706 344.742 123.547 344.461 123.438C344.18 123.323 343.857 123.266 343.492 123.266C343.023 123.266 342.63 123.354 342.312 123.531C342 123.708 341.732 123.958 341.508 124.281C341.279 124.599 341.109 124.997 341 125.477C340.896 125.956 340.844 126.453 340.844 126.969V128.961C340.844 129.159 340.852 129.362 340.867 129.57C340.883 129.773 340.906 129.977 340.938 130.18ZM346.141 129.648V127.805C346.135 127.638 346.128 127.435 346.117 127.195C346.107 126.956 346.089 126.737 346.062 126.539L341.016 131.086C341.089 131.43 341.193 131.745 341.328 132.031C341.469 132.312 341.643 132.552 341.852 132.75C342.055 132.943 342.292 133.094 342.562 133.203C342.839 133.307 343.154 133.359 343.508 133.359C343.966 133.359 344.357 133.266 344.68 133.078C345.008 132.891 345.271 132.641 345.469 132.328C345.708 131.99 345.878 131.589 345.977 131.125C346.081 130.661 346.135 130.169 346.141 129.648ZM361.883 129.602L360.547 130.836V134H359.617V124.898H360.547V129.664L361.836 128.383L365.375 124.898H366.555L362.547 128.953L366.883 134H365.727L361.883 129.602ZM372.344 129.547L374.617 124.898H375.852V134H374.953V125.984L372.688 130.93H372.023L369.727 126.047V134H368.836V124.898H370.086L372.344 129.547ZM389.703 129.406C389.703 128.807 389.745 128.219 389.828 127.641C389.911 127.057 390.029 126.497 390.18 125.961C390.326 125.43 390.503 124.924 390.711 124.445C390.924 123.961 391.164 123.518 391.43 123.117C391.69 122.711 391.971 122.349 392.273 122.031C392.576 121.714 392.893 121.451 393.227 121.242L393.453 121.883C393.182 122.076 392.93 122.31 392.695 122.586C392.466 122.857 392.258 123.154 392.07 123.477C391.841 123.862 391.633 124.289 391.445 124.758C391.263 125.227 391.112 125.716 390.992 126.227C390.872 126.716 390.781 127.227 390.719 127.758C390.661 128.289 390.633 128.831 390.633 129.383V129.539C390.633 130.07 390.661 130.596 390.719 131.117C390.776 131.638 390.859 132.141 390.969 132.625C391.083 133.109 391.221 133.576 391.383 134.023C391.549 134.471 391.737 134.885 391.945 135.266C392.154 135.641 392.383 135.979 392.633 136.281C392.883 136.589 393.156 136.849 393.453 137.062L393.227 137.672C392.888 137.458 392.565 137.193 392.258 136.875C391.956 136.562 391.674 136.203 391.414 135.797C391.154 135.396 390.917 134.956 390.703 134.477C390.495 133.997 390.318 133.49 390.172 132.953C390.021 132.422 389.904 131.867 389.82 131.289C389.742 130.711 389.703 130.122 389.703 129.523V129.406ZM397.781 134V125.547H400.969C401.406 125.552 401.82 125.594 402.211 125.672C402.607 125.75 402.953 125.875 403.25 126.047C403.547 126.224 403.781 126.456 403.953 126.742C404.125 127.029 404.211 127.38 404.211 127.797C404.211 128.073 404.167 128.318 404.078 128.531C403.99 128.745 403.862 128.93 403.695 129.086C403.576 129.211 403.432 129.318 403.266 129.406C403.104 129.49 402.927 129.565 402.734 129.633L402.797 129.664C403.062 129.716 403.299 129.799 403.508 129.914C403.721 130.029 403.904 130.172 404.055 130.344C404.211 130.516 404.331 130.714 404.414 130.938C404.503 131.161 404.547 131.401 404.547 131.656C404.547 132.068 404.469 132.422 404.312 132.719C404.156 133.01 403.94 133.25 403.664 133.438C403.393 133.63 403.07 133.771 402.695 133.859C402.326 133.948 401.93 133.995 401.508 134H397.781ZM398.711 130.109V133.211H401.508C401.81 133.206 402.091 133.174 402.352 133.117C402.612 133.055 402.839 132.956 403.031 132.82C403.214 132.701 403.357 132.544 403.461 132.352C403.565 132.154 403.617 131.917 403.617 131.641C403.617 131.37 403.56 131.138 403.445 130.945C403.331 130.753 403.18 130.594 402.992 130.469C402.799 130.349 402.576 130.26 402.32 130.203C402.065 130.141 401.794 130.109 401.508 130.109H398.711ZM398.711 129.32H401.102C401.44 129.32 401.75 129.289 402.031 129.227C402.312 129.164 402.549 129.062 402.742 128.922C402.909 128.807 403.039 128.661 403.133 128.484C403.232 128.302 403.281 128.083 403.281 127.828C403.281 127.536 403.216 127.294 403.086 127.102C402.961 126.909 402.792 126.758 402.578 126.648C402.37 126.534 402.125 126.456 401.844 126.414C401.568 126.367 401.276 126.344 400.969 126.344H398.711V129.32ZM64.5156 144.195C64.1979 144.195 63.8906 144.24 63.5938 144.328C63.3021 144.417 63.0417 144.547 62.8125 144.719C62.5833 144.891 62.3958 145.099 62.25 145.344C62.1094 145.589 62.0365 145.87 62.0312 146.188H61.125C61.1354 145.776 61.237 145.398 61.4297 145.055C61.6224 144.711 61.875 144.417 62.1875 144.172C62.4948 143.922 62.849 143.729 63.25 143.594C63.6562 143.458 64.0781 143.391 64.5156 143.391C65.1458 143.391 65.7031 143.505 66.1875 143.734C66.6719 143.958 67.0807 144.263 67.4141 144.648C67.737 145.034 67.9844 145.482 68.1562 145.992C68.3281 146.503 68.4141 147.042 68.4141 147.609V147.938C68.4141 148.505 68.3281 149.044 68.1562 149.555C67.9896 150.065 67.7422 150.513 67.4141 150.898C67.0807 151.284 66.6719 151.591 66.1875 151.82C65.7083 152.044 65.1536 152.156 64.5234 152.156C64.0391 152.156 63.5911 152.083 63.1797 151.938C62.7734 151.792 62.4219 151.586 62.125 151.32C61.8229 151.06 61.5833 150.745 61.4062 150.375C61.2292 150 61.1354 149.589 61.125 149.141H62.0312C62.0365 149.474 62.1042 149.779 62.2344 150.055C62.3646 150.326 62.5417 150.557 62.7656 150.75C62.9896 150.948 63.25 151.099 63.5469 151.203C63.849 151.307 64.1745 151.359 64.5234 151.359C65.013 151.359 65.4375 151.271 65.7969 151.094C66.1615 150.917 66.4661 150.68 66.7109 150.383C66.9505 150.086 67.1328 149.742 67.2578 149.352C67.388 148.961 67.4609 148.552 67.4766 148.125H63.3594V147.328H67.4688C67.4479 146.911 67.3724 146.513 67.2422 146.133C67.112 145.753 66.9245 145.419 66.6797 145.133C66.4349 144.846 66.1328 144.62 65.7734 144.453C65.4141 144.281 64.9948 144.195 64.5156 144.195ZM73.6953 148.133H72.1562V152H71.2109V143.547H72.1562V147.289H73.6719L77.0625 143.547H78.2578L74.5078 147.648L78.6641 152H77.4219L73.6953 148.133ZM80.25 147.648C80.25 147.076 80.3359 146.531 80.5078 146.016C80.6797 145.5 80.9271 145.049 81.25 144.664C81.5729 144.273 81.9661 143.964 82.4297 143.734C82.8932 143.505 83.4219 143.391 84.0156 143.391C84.6042 143.391 85.1302 143.505 85.5938 143.734C86.0625 143.964 86.4609 144.271 86.7891 144.656C87.1068 145.047 87.3516 145.5 87.5234 146.016C87.6953 146.531 87.7839 147.076 87.7891 147.648V147.906C87.7839 148.479 87.6953 149.023 87.5234 149.539C87.3568 150.049 87.112 150.5 86.7891 150.891C86.4661 151.276 86.0729 151.583 85.6094 151.812C85.1458 152.042 84.6198 152.156 84.0312 152.156C83.4375 152.156 82.9062 152.044 82.4375 151.82C81.9688 151.591 81.5755 151.281 81.2578 150.891C80.9297 150.505 80.6797 150.055 80.5078 149.539C80.3359 149.023 80.25 148.479 80.25 147.906V147.648ZM81.1797 147.906C81.1797 148.354 81.2422 148.786 81.3672 149.203C81.4922 149.62 81.6745 149.987 81.9141 150.305C82.1536 150.628 82.4505 150.885 82.8047 151.078C83.1589 151.266 83.5677 151.359 84.0312 151.359C84.4896 151.359 84.8932 151.266 85.2422 151.078C85.5911 150.885 85.888 150.628 86.1328 150.305C86.3672 149.982 86.5443 149.615 86.6641 149.203C86.7891 148.786 86.8542 148.354 86.8594 147.906V147.648C86.8542 147.206 86.7891 146.776 86.6641 146.359C86.5391 145.943 86.3594 145.576 86.125 145.258C85.8802 144.935 85.5807 144.677 85.2266 144.484C84.8776 144.292 84.474 144.195 84.0156 144.195C83.5521 144.195 83.1458 144.292 82.7969 144.484C82.4479 144.677 82.1536 144.935 81.9141 145.258C81.6745 145.576 81.4922 145.943 81.3672 146.359C81.2422 146.776 81.1797 147.206 81.1797 147.648V147.906ZM96.9531 152H96.0156V148.125H91.2344V152H90.3047V143.547H91.2344V147.328H96.0156V143.547H96.9531V152ZM99.4688 147.648C99.4688 147.076 99.5547 146.531 99.7266 146.016C99.8984 145.5 100.146 145.049 100.469 144.664C100.792 144.273 101.185 143.964 101.648 143.734C102.112 143.505 102.641 143.391 103.234 143.391C103.823 143.391 104.349 143.505 104.812 143.734C105.281 143.964 105.68 144.271 106.008 144.656C106.326 145.047 106.57 145.5 106.742 146.016C106.914 146.531 107.003 147.076 107.008 147.648V147.906C107.003 148.479 106.914 149.023 106.742 149.539C106.576 150.049 106.331 150.5 106.008 150.891C105.685 151.276 105.292 151.583 104.828 151.812C104.365 152.042 103.839 152.156 103.25 152.156C102.656 152.156 102.125 152.044 101.656 151.82C101.188 151.591 100.794 151.281 100.477 150.891C100.148 150.505 99.8984 150.055 99.7266 149.539C99.5547 149.023 99.4688 148.479 99.4688 147.906V147.648ZM100.398 147.906C100.398 148.354 100.461 148.786 100.586 149.203C100.711 149.62 100.893 149.987 101.133 150.305C101.372 150.628 101.669 150.885 102.023 151.078C102.378 151.266 102.786 151.359 103.25 151.359C103.708 151.359 104.112 151.266 104.461 151.078C104.81 150.885 105.107 150.628 105.352 150.305C105.586 149.982 105.763 149.615 105.883 149.203C106.008 148.786 106.073 148.354 106.078 147.906V147.648C106.073 147.206 106.008 146.776 105.883 146.359C105.758 145.943 105.578 145.576 105.344 145.258C105.099 144.935 104.799 144.677 104.445 144.484C104.096 144.292 103.693 144.195 103.234 144.195C102.771 144.195 102.365 144.292 102.016 144.484C101.667 144.677 101.372 144.935 101.133 145.258C100.893 145.576 100.711 145.943 100.586 146.359C100.461 146.776 100.398 147.206 100.398 147.648V147.906ZM112.758 150.727L115.125 143.547H116.25V152H115.336V145.664L113.086 152H112.438L110.133 145.477V152H109.219V143.547H110.398L112.758 150.727ZM125.781 152H124.844V148.125H120.062V152H119.133V143.547H120.062V147.328H124.844V143.547H125.781V152ZM128.297 147.648C128.297 147.076 128.383 146.531 128.555 146.016C128.727 145.5 128.974 145.049 129.297 144.664C129.62 144.273 130.013 143.964 130.477 143.734C130.94 143.505 131.469 143.391 132.062 143.391C132.651 143.391 133.177 143.505 133.641 143.734C134.109 143.964 134.508 144.271 134.836 144.656C135.154 145.047 135.398 145.5 135.57 146.016C135.742 146.531 135.831 147.076 135.836 147.648V147.906C135.831 148.479 135.742 149.023 135.57 149.539C135.404 150.049 135.159 150.5 134.836 150.891C134.513 151.276 134.12 151.583 133.656 151.812C133.193 152.042 132.667 152.156 132.078 152.156C131.484 152.156 130.953 152.044 130.484 151.82C130.016 151.591 129.622 151.281 129.305 150.891C128.977 150.505 128.727 150.055 128.555 149.539C128.383 149.023 128.297 148.479 128.297 147.906V147.648ZM129.227 147.906C129.227 148.354 129.289 148.786 129.414 149.203C129.539 149.62 129.721 149.987 129.961 150.305C130.201 150.628 130.497 150.885 130.852 151.078C131.206 151.266 131.615 151.359 132.078 151.359C132.536 151.359 132.94 151.266 133.289 151.078C133.638 150.885 133.935 150.628 134.18 150.305C134.414 149.982 134.591 149.615 134.711 149.203C134.836 148.786 134.901 148.354 134.906 147.906V147.648C134.901 147.206 134.836 146.776 134.711 146.359C134.586 145.943 134.406 145.576 134.172 145.258C133.927 144.935 133.628 144.677 133.273 144.484C132.924 144.292 132.521 144.195 132.062 144.195C131.599 144.195 131.193 144.292 130.844 144.484C130.495 144.677 130.201 144.935 129.961 145.258C129.721 145.576 129.539 145.943 129.414 146.359C129.289 146.776 129.227 147.206 129.227 147.648V147.906ZM141.586 150.727L143.953 143.547H145.078V152H144.164V145.664L141.914 152H141.266L138.961 145.477V152H138.047V143.547H139.227L141.586 150.727ZM157.633 155.25V143.547H158.5L158.531 144.711C158.661 144.518 158.81 144.346 158.977 144.195C159.143 144.039 159.326 143.906 159.523 143.797C159.747 143.667 159.992 143.568 160.258 143.5C160.523 143.427 160.802 143.391 161.094 143.391C161.641 143.391 162.117 143.497 162.523 143.711C162.93 143.919 163.271 144.208 163.547 144.578C163.849 144.979 164.07 145.453 164.211 146C164.357 146.542 164.432 147.107 164.438 147.695V147.859C164.438 148.411 164.367 148.948 164.227 149.469C164.091 149.99 163.888 150.448 163.617 150.844C163.352 151.24 163.008 151.557 162.586 151.797C162.169 152.036 161.677 152.156 161.109 152.156C160.823 152.156 160.544 152.122 160.273 152.055C160.003 151.992 159.753 151.901 159.523 151.781C159.336 151.682 159.159 151.565 158.992 151.43C158.831 151.294 158.688 151.143 158.562 150.977V155.25H157.633ZM163.5 147.695C163.5 147.247 163.445 146.805 163.336 146.367C163.232 145.93 163.065 145.539 162.836 145.195C162.622 144.904 162.357 144.667 162.039 144.484C161.721 144.302 161.336 144.211 160.883 144.211C160.617 144.211 160.365 144.25 160.125 144.328C159.891 144.401 159.674 144.505 159.477 144.641C159.273 144.781 159.094 144.951 158.938 145.148C158.786 145.341 158.661 145.56 158.562 145.805V149.922C158.656 150.141 158.781 150.339 158.938 150.516C159.094 150.693 159.268 150.841 159.461 150.961C159.669 151.086 159.896 151.185 160.141 151.258C160.385 151.326 160.638 151.359 160.898 151.359C161.362 151.359 161.755 151.26 162.078 151.062C162.406 150.865 162.674 150.607 162.883 150.289C163.096 149.961 163.25 149.583 163.344 149.156C163.443 148.729 163.495 148.297 163.5 147.859V147.695ZM170.82 152.156C170.237 152.156 169.703 152.047 169.219 151.828C168.734 151.609 168.32 151.312 167.977 150.938C167.628 150.557 167.357 150.117 167.164 149.617C166.971 149.112 166.875 148.576 166.875 148.008V147.672C166.875 147.073 166.971 146.513 167.164 145.992C167.362 145.466 167.633 145.01 167.977 144.625C168.31 144.245 168.706 143.945 169.164 143.727C169.622 143.503 170.117 143.391 170.648 143.391C171.206 143.391 171.701 143.492 172.133 143.695C172.565 143.893 172.93 144.167 173.227 144.516C173.523 144.87 173.747 145.284 173.898 145.758C174.049 146.227 174.128 146.729 174.133 147.266V147.836H167.805V148.094C167.826 148.542 167.909 148.958 168.055 149.344C168.201 149.729 168.406 150.07 168.672 150.367C168.932 150.669 169.247 150.911 169.617 151.094C169.992 151.271 170.406 151.359 170.859 151.359C171.38 151.365 171.852 151.268 172.273 151.07C172.695 150.872 173.057 150.586 173.359 150.211L173.945 150.656C173.628 151.104 173.203 151.466 172.672 151.742C172.141 152.018 171.523 152.156 170.82 152.156ZM170.648 144.195C170.263 144.195 169.911 144.268 169.594 144.414C169.276 144.555 168.997 144.75 168.758 145C168.518 145.255 168.32 145.557 168.164 145.906C168.008 146.255 167.901 146.633 167.844 147.039H173.203V146.953C173.203 146.609 173.141 146.268 173.016 145.93C172.896 145.591 172.729 145.294 172.516 145.039C172.297 144.784 172.031 144.581 171.719 144.43C171.406 144.273 171.049 144.195 170.648 144.195ZM181.164 148.102H180.5V152H179.586V148.102H178.922L176.555 152H175.445L178.172 147.648L175.773 143.547H176.836L178.883 147.25H179.586V143.547H180.5V147.25H181.211L183.258 143.547H184.328L181.914 147.656L184.656 152H183.539L181.164 148.102ZM192.109 143.547H193.047V152H192.109V145.031L187.328 152H186.398V143.547H187.328V150.523L192.109 143.547ZM199.242 150.727L201.609 143.547H202.734V152H201.82V145.664L199.57 152H198.922L196.617 145.477V152H195.703V143.547H196.883L199.242 150.727ZM209.258 152.156C208.674 152.156 208.141 152.047 207.656 151.828C207.172 151.609 206.758 151.312 206.414 150.938C206.065 150.557 205.794 150.117 205.602 149.617C205.409 149.112 205.312 148.576 205.312 148.008V147.672C205.312 147.073 205.409 146.513 205.602 145.992C205.799 145.466 206.07 145.01 206.414 144.625C206.747 144.245 207.143 143.945 207.602 143.727C208.06 143.503 208.555 143.391 209.086 143.391C209.643 143.391 210.138 143.492 210.57 143.695C211.003 143.893 211.367 144.167 211.664 144.516C211.961 144.87 212.185 145.284 212.336 145.758C212.487 146.227 212.565 146.729 212.57 147.266V147.836H206.242V148.094C206.263 148.542 206.346 148.958 206.492 149.344C206.638 149.729 206.844 150.07 207.109 150.367C207.37 150.669 207.685 150.911 208.055 151.094C208.43 151.271 208.844 151.359 209.297 151.359C209.818 151.365 210.289 151.268 210.711 151.07C211.133 150.872 211.495 150.586 211.797 150.211L212.383 150.656C212.065 151.104 211.641 151.466 211.109 151.742C210.578 152.018 209.961 152.156 209.258 152.156ZM209.086 144.195C208.701 144.195 208.349 144.268 208.031 144.414C207.714 144.555 207.435 144.75 207.195 145C206.956 145.255 206.758 145.557 206.602 145.906C206.445 146.255 206.339 146.633 206.281 147.039H211.641V146.953C211.641 146.609 211.578 146.268 211.453 145.93C211.333 145.591 211.167 145.294 210.953 145.039C210.734 144.784 210.469 144.581 210.156 144.43C209.844 144.273 209.487 144.195 209.086 144.195ZM220.18 147.523C220.18 148.122 220.138 148.711 220.055 149.289C219.977 149.867 219.862 150.422 219.711 150.953C219.565 151.49 219.385 151.997 219.172 152.477C218.964 152.956 218.729 153.396 218.469 153.797C218.203 154.203 217.917 154.562 217.609 154.875C217.307 155.193 216.99 155.458 216.656 155.672L216.43 155.062C216.727 154.854 217.003 154.594 217.258 154.281C217.518 153.969 217.753 153.62 217.961 153.234C218.169 152.849 218.354 152.432 218.516 151.984C218.682 151.531 218.818 151.055 218.922 150.555C219.031 150.081 219.112 149.589 219.164 149.078C219.216 148.568 219.245 148.055 219.25 147.539V147.383C219.245 146.82 219.211 146.279 219.148 145.758C219.086 145.232 219.005 144.745 218.906 144.297C218.781 143.771 218.628 143.273 218.445 142.805C218.263 142.336 218.062 141.909 217.844 141.523C217.646 141.174 217.427 140.859 217.188 140.578C216.953 140.292 216.701 140.049 216.43 139.852L216.656 139.242C216.99 139.451 217.307 139.714 217.609 140.031C217.917 140.349 218.201 140.711 218.461 141.117C218.727 141.523 218.964 141.966 219.172 142.445C219.38 142.919 219.557 143.424 219.703 143.961C219.849 144.492 219.964 145.044 220.047 145.617C220.135 146.185 220.18 146.781 220.18 147.406V147.523Z" fill="black"/>
<path d="M68.096 199.872H66.72L62.768 190.512V200H61.408V188.8H63.456L67.424 198.256L71.36 188.8H73.392V200H72.032V190.368L68.096 199.872ZM79.233 200.176C76.993 200.176 75.361 198.448 75.361 195.968C75.361 193.504 76.993 191.776 79.233 191.776C81.473 191.776 83.105 193.504 83.105 195.968C83.105 198.448 81.473 200.176 79.233 200.176ZM76.753 195.984C76.753 197.856 77.729 199.04 79.233 199.04C80.737 199.04 81.713 197.856 81.713 195.984C81.713 194.096 80.737 192.912 79.233 192.912C77.729 192.912 76.753 194.096 76.753 195.984ZM95.4925 202.288V200H85.0605V191.968H86.4045V198.848H89.6685V191.968H91.0125V198.848H94.2765V191.968H95.6205V198.848H96.7725V202.288H95.4925ZM99.7018 200H98.3418V191.968H99.7018V195.216H103.67V191.968H105.03V200H103.67V196.4H99.7018V200ZM110.858 200.176C108.618 200.176 106.986 198.448 106.986 195.968C106.986 193.504 108.618 191.776 110.858 191.776C113.098 191.776 114.73 193.504 114.73 195.968C114.73 198.448 113.098 200.176 110.858 200.176ZM108.378 195.984C108.378 197.856 109.354 199.04 110.858 199.04C112.362 199.04 113.338 197.856 113.338 195.984C113.338 194.096 112.362 192.912 110.858 192.912C109.354 192.912 108.378 194.096 108.378 195.984ZM122.093 194.896C121.965 193.712 121.197 192.912 120.045 192.912C118.589 192.912 117.597 194.112 117.597 195.984C117.597 197.824 118.589 199.024 120.045 199.024C121.229 199.024 122.045 198.304 122.157 197.056L123.549 197.136C123.341 199.04 121.997 200.176 120.045 200.176C117.837 200.176 116.205 198.416 116.205 195.968C116.205 193.568 117.837 191.776 120.045 191.776C122.029 191.776 123.341 192.976 123.501 194.816L122.093 194.896ZM128.149 200H126.789V193.12H124.069V191.968H130.869V193.12H128.149V200ZM132.154 200V191.968H133.514V194.592H135.546C137.29 194.592 138.426 195.76 138.426 197.28C138.426 198.864 137.29 200 135.546 200H132.154ZM133.514 198.896H135.418C136.41 198.896 137.066 198.24 137.066 197.296C137.066 196.4 136.41 195.696 135.418 195.696H133.514V198.896ZM140.011 199.136C140.011 198.741 140.107 198.464 140.299 198.304C140.491 198.144 140.721 198.064 140.987 198.064C141.265 198.064 141.499 198.144 141.691 198.304C141.894 198.464 141.995 198.741 141.995 199.136C141.995 199.52 141.894 199.797 141.691 199.968C141.499 200.139 141.265 200.224 140.987 200.224C140.721 200.224 140.491 200.139 140.299 199.968C140.107 199.797 140.011 199.52 140.011 199.136ZM140.011 192.288C140.011 191.883 140.107 191.6 140.299 191.44C140.491 191.28 140.721 191.2 140.987 191.2C141.265 191.2 141.499 191.28 141.691 191.44C141.894 191.6 141.995 191.883 141.995 192.288C141.995 192.672 141.894 192.949 141.691 193.12C141.499 193.291 141.265 193.376 140.987 193.376C140.721 193.376 140.491 193.291 140.299 193.12C140.107 192.949 140.011 192.672 140.011 192.288Z" fill="black"/>
<path d="M66.9375 227.328H68.7188V228.125H66.9375V231H66.0078V228.125H60.6562V227.586L65.9219 219.625H66.9375V227.328ZM61.7812 227.328H66.0078V220.836L65.5625 221.594L61.7812 227.328ZM77.9375 222.555C77.9323 222.914 77.8672 223.247 77.7422 223.555C77.6172 223.862 77.4427 224.135 77.2188 224.375C77.0573 224.547 76.875 224.701 76.6719 224.836C76.4688 224.966 76.25 225.076 76.0156 225.164C76.3281 225.268 76.6198 225.409 76.8906 225.586C77.1615 225.763 77.3958 225.971 77.5938 226.211C77.7917 226.451 77.9479 226.721 78.0625 227.023C78.1771 227.32 78.2344 227.641 78.2344 227.984C78.2344 228.5 78.1354 228.956 77.9375 229.352C77.7448 229.742 77.4844 230.07 77.1562 230.336C76.8229 230.607 76.4375 230.812 76 230.953C75.5625 231.089 75.1016 231.156 74.6172 231.156C74.1276 231.156 73.6615 231.089 73.2188 230.953C72.7812 230.818 72.3984 230.615 72.0703 230.344C71.737 230.078 71.474 229.75 71.2812 229.359C71.0885 228.964 70.9922 228.505 70.9922 227.984C70.9922 227.641 71.0469 227.32 71.1562 227.023C71.2656 226.721 71.4193 226.451 71.6172 226.211C71.8099 225.971 72.0391 225.763 72.3047 225.586C72.5703 225.409 72.8594 225.268 73.1719 225.164C72.901 225.055 72.6484 224.917 72.4141 224.75C72.1849 224.583 71.987 224.388 71.8203 224.164C71.6536 223.945 71.5234 223.701 71.4297 223.43C71.3359 223.159 71.2891 222.867 71.2891 222.555C71.2891 222.07 71.3724 221.638 71.5391 221.258C71.7057 220.872 71.9375 220.547 72.2344 220.281C72.5312 220.021 72.8802 219.82 73.2812 219.68C73.6875 219.539 74.1224 219.469 74.5859 219.469C75.0495 219.469 75.4844 219.539 75.8906 219.68C76.3021 219.82 76.6589 220.021 76.9609 220.281C77.263 220.547 77.5 220.872 77.6719 221.258C77.849 221.638 77.9375 222.07 77.9375 222.555ZM77.2969 227.992C77.2969 227.617 77.224 227.279 77.0781 226.977C76.9323 226.674 76.7344 226.419 76.4844 226.211C76.2396 226.003 75.9531 225.844 75.625 225.734C75.3021 225.62 74.9609 225.562 74.6016 225.562C74.237 225.562 73.8932 225.62 73.5703 225.734C73.2474 225.844 72.9661 226 72.7266 226.203C72.4818 226.417 72.2865 226.674 72.1406 226.977C72 227.279 71.9297 227.617 71.9297 227.992C71.9297 228.378 72 228.719 72.1406 229.016C72.2812 229.307 72.474 229.552 72.7188 229.75C72.9635 229.953 73.2474 230.107 73.5703 230.211C73.8984 230.31 74.2474 230.359 74.6172 230.359C74.9766 230.359 75.3177 230.307 75.6406 230.203C75.9688 230.099 76.2552 229.948 76.5 229.75C76.7396 229.552 76.9323 229.305 77.0781 229.008C77.224 228.711 77.2969 228.372 77.2969 227.992ZM77 222.547C77 222.208 76.9349 221.898 76.8047 221.617C76.6745 221.336 76.5026 221.096 76.2891 220.898C76.0651 220.701 75.8073 220.547 75.5156 220.438C75.224 220.328 74.9141 220.273 74.5859 220.273C74.2578 220.273 73.9505 220.326 73.6641 220.43C73.3776 220.534 73.1276 220.685 72.9141 220.883C72.6953 221.081 72.5234 221.32 72.3984 221.602C72.2786 221.883 72.2188 222.198 72.2188 222.547C72.2188 222.896 72.2812 223.208 72.4062 223.484C72.5365 223.755 72.7109 223.984 72.9297 224.172C73.1432 224.365 73.3932 224.513 73.6797 224.617C73.9714 224.716 74.2786 224.766 74.6016 224.766C74.9245 224.766 75.2318 224.716 75.5234 224.617C75.8151 224.513 76.0703 224.365 76.2891 224.172C76.5078 223.979 76.6797 223.747 76.8047 223.477C76.9349 223.201 77 222.891 77 222.547ZM87.6719 220.164L82.8125 231H81.8438L86.6641 220.469H80.1953V219.625H87.6719V220.164ZM100.688 231L98.7656 221.898H99.6484L100.969 228.336L101.156 229.25L101.344 228.359L102.906 221.898H103.703L105.234 228.352L105.438 229.266L105.625 228.336L106.938 221.898H107.812L105.898 231H105.078L103.461 224.266L103.305 223.617L103.148 224.266L101.508 231H100.688ZM115.914 231H115.023V226.906H110.383V231H109.492V221.898H110.383V226.102H115.023V221.898H115.914V231Z" fill="black"/>
<line x1="30.5" y1="185" x2="30.5" y2="234" stroke="black"/>
</svg>
