<svg width="620" height="291" viewBox="0 0 620 291" fill="none" xmlns="http://www.w3.org/2000/svg">
<rect width="620" height="291" fill="#E9E8E1"/>
<path d="M36.6445 38.5714L41.2616 30L30 41.4286H37.2224L31.7283 50L43 38.5714H36.6445Z" fill="black"/>
<path d="M51.6445 38.5714L56.2616 30L45 41.4286H52.2224L46.7283 50L58 38.5714H51.6445Z" fill="black"/>
<path d="M69.408 46V34.8H74.48C76.368 34.8 77.744 35.952 77.744 37.696C77.744 38.752 77.152 39.76 76.032 40.224C77.424 40.608 78.08 41.664 78.08 42.928C78.08 44.736 76.704 46 74.64 46H69.408ZM70.848 44.8H74.464C75.744 44.8 76.608 44.032 76.608 42.864C76.608 41.68 75.744 40.896 74.464 40.896H70.848V44.8ZM70.848 39.664H74.384C75.52 39.664 76.288 38.928 76.288 37.824C76.288 36.736 75.488 36 74.336 36H70.848V39.664ZM81.3893 49.04H80.0293V37.968H81.3893V39.408C81.9493 38.4 82.9093 37.776 84.2053 37.776C86.2373 37.776 87.7093 39.44 87.7093 41.968C87.7093 44.56 86.2373 46.176 84.2053 46.176C82.9093 46.176 81.9493 45.568 81.3893 44.56V49.04ZM81.3733 41.984C81.3733 43.824 82.4773 45.04 83.8853 45.04C85.3573 45.04 86.3013 43.84 86.3013 41.984C86.3013 40.112 85.3573 38.912 83.8853 38.912C82.4773 38.912 81.3733 40.112 81.3733 41.984ZM93.0775 37.776C95.2375 37.776 96.9335 39.2 96.7895 42.352H90.5655C90.6935 44.032 91.6535 45.072 93.0935 45.072C94.3095 45.072 95.1735 44.448 95.3495 43.44L96.7095 43.52C96.3895 45.216 95.0135 46.176 93.0935 46.176C90.7735 46.176 89.1735 44.432 89.1735 41.968C89.1735 39.536 90.8055 37.776 93.0775 37.776ZM90.5975 41.312H95.3975C95.2535 39.6 94.2135 38.88 93.0775 38.88C91.7175 38.88 90.8055 39.808 90.5975 41.312ZM103.966 46H102.75L99.9655 39.392V46H98.6855V37.968H100.59L103.374 44.672L106.142 37.968H108.03V46H106.766V39.328L103.966 46ZM115.282 46V42.96H113.314L111.314 46H109.826L111.986 42.816C110.706 42.512 110.034 41.632 110.034 40.448C110.034 39.008 111.154 37.968 112.77 37.968H116.626V46H115.282ZM111.394 40.48C111.394 41.312 112.018 41.872 112.866 41.872H115.282V39.056H112.866C112.018 39.056 111.394 39.648 111.394 40.48ZM124.89 46.176C123.002 46.176 121.578 45.456 121.322 43.424L122.714 43.344C122.778 44.576 123.626 45.088 124.89 45.088C126.042 45.088 126.81 44.56 126.81 43.696C126.81 42.944 126.266 42.464 125.258 42.464H123.546V41.376H125.258C126.026 41.376 126.698 41.04 126.698 40.224C126.698 39.456 126.042 38.864 124.89 38.864C123.674 38.864 122.89 39.44 122.81 40.528L121.466 40.448C121.658 38.656 123.178 37.776 124.89 37.776C126.778 37.776 128.042 38.768 128.042 40.112C128.042 40.896 127.594 41.584 126.618 41.872C127.706 42.16 128.154 42.88 128.154 43.744C128.154 45.168 126.906 46.176 124.89 46.176ZM134.94 44.432C134.54 45.456 133.452 46.176 132.06 46.176C130.476 46.176 129.468 45.264 129.468 43.936C129.468 42.608 130.396 41.872 131.884 41.584L133.564 41.248C134.572 41.04 134.892 40.768 134.892 40.272C134.892 39.44 134.188 38.88 133.1 38.88C131.9 38.88 131.164 39.472 131.052 40.496L129.708 40.4C129.916 38.656 131.324 37.776 133.1 37.776C134.94 37.776 136.268 38.72 136.268 40.576V44.608C136.268 44.896 136.444 45.072 136.732 45.072C136.828 45.072 136.972 45.056 137.084 45.024V46.016C136.828 46.096 136.636 46.144 136.348 46.144C135.5 46.144 135.004 45.728 134.956 44.96L134.94 44.432ZM130.876 43.856C130.876 44.528 131.34 45.104 132.364 45.104C133.852 45.104 134.924 43.952 134.924 42.384V41.552H134.908C134.636 41.92 134.252 42.112 133.516 42.272L132.156 42.576C131.372 42.752 130.876 43.168 130.876 43.856ZM140.124 49.04H138.764V37.968H140.124V39.408C140.684 38.4 141.644 37.776 142.94 37.776C144.972 37.776 146.444 39.44 146.444 41.968C146.444 44.56 144.972 46.176 142.94 46.176C141.644 46.176 140.684 45.568 140.124 44.56V49.04ZM140.108 41.984C140.108 43.824 141.212 45.04 142.62 45.04C144.092 45.04 145.036 43.84 145.036 41.984C145.036 40.112 144.092 38.912 142.62 38.912C141.212 38.912 140.108 40.112 140.108 41.984ZM153.188 46V42.96H151.22L149.22 46H147.732L149.892 42.816C148.612 42.512 147.94 41.632 147.94 40.448C147.94 39.008 149.06 37.968 150.676 37.968H154.532V46H153.188ZM149.3 40.48C149.3 41.312 149.924 41.872 150.772 41.872H153.188V39.056H150.772C149.924 39.056 149.3 39.648 149.3 40.48ZM157.253 48.288H155.973V44.848H156.741C157.589 44.08 157.749 43.072 157.797 39.344L157.813 37.968H163.701V44.848H164.853V48.288H163.573V46H157.253V48.288ZM158.165 44.848H162.373V39.104H159.077V39.776C159.029 42.784 158.837 44.08 158.165 44.848ZM167.78 46H166.42V37.968H167.78V41.504L171.476 37.968H173.188L169.108 41.808L173.252 46H171.492L167.78 42.256V46ZM176.08 46H174.576V37.968H175.904V44.32L179.888 37.968H181.392V46H180.08V39.664L176.08 46Z" fill="black"/>
<line x1="30.5" y1="90" x2="30.5" y2="136" stroke="black"/>
<path d="M65.328 105.176C62.688 105.176 60.896 103.064 60.896 99.384C60.896 95.784 62.688 93.624 65.328 93.624C67.904 93.624 69.648 95.784 69.648 99.384C69.648 103.064 67.904 105.176 65.328 105.176ZM62.352 99.4C62.352 102.408 63.536 103.944 65.328 103.944C67.056 103.944 68.192 102.408 68.192 99.4C68.192 96.44 67.056 94.856 65.328 94.856C63.536 94.856 62.352 96.44 62.352 99.4ZM71.1713 101.336V100.088H77.8913V101.336H71.1713ZM81.7153 105V96.92H79.1073V95.8H79.5233C80.7553 95.8 81.7633 95.224 81.8913 93.976L81.9073 93.8H83.1233V105H81.7153ZM89.8593 105.176C87.2193 105.176 85.4273 103.064 85.4273 99.384C85.4273 95.784 87.2193 93.624 89.8593 93.624C92.4353 93.624 94.1793 95.784 94.1793 99.384C94.1793 103.064 92.4353 105.176 89.8593 105.176ZM86.8832 99.4C86.8832 102.408 88.0673 103.944 89.8593 103.944C91.5873 103.944 92.7233 102.408 92.7233 99.4C92.7233 96.44 91.5873 94.856 89.8593 94.856C88.0673 94.856 86.8832 96.44 86.8832 99.4ZM100.406 105.176C97.7661 105.176 95.9741 103.064 95.9741 99.384C95.9741 95.784 97.7661 93.624 100.406 93.624C102.982 93.624 104.726 95.784 104.726 99.384C104.726 103.064 102.982 105.176 100.406 105.176ZM97.4301 99.4C97.4301 102.408 98.6141 103.944 100.406 103.944C102.134 103.944 103.27 102.408 103.27 99.4C103.27 96.44 102.134 94.856 100.406 94.856C98.6141 94.856 97.4301 96.44 97.4301 99.4ZM108.729 93.416C109.519 93.416 110.116 93.7307 110.521 94.36C110.927 94.9787 111.129 95.8533 111.129 96.984C111.129 98.1147 110.932 99 110.537 99.64C110.153 100.269 109.551 100.584 108.729 100.584C108.228 100.584 107.801 100.44 107.449 100.152C107.097 99.864 106.831 99.4533 106.649 98.92C106.479 98.376 106.393 97.7307 106.393 96.984C106.393 95.8533 106.58 94.9787 106.953 94.36C107.327 93.7307 107.919 93.416 108.729 93.416ZM108.729 94.408C108.324 94.408 108.025 94.6267 107.833 95.064C107.652 95.4907 107.561 96.1307 107.561 96.984C107.561 97.8373 107.652 98.4827 107.833 98.92C108.025 99.3573 108.324 99.576 108.729 99.576C109.145 99.576 109.455 99.3627 109.657 98.936C109.86 98.4987 109.961 97.848 109.961 96.984C109.961 96.1307 109.86 95.4907 109.657 95.064C109.455 94.6267 109.145 94.408 108.729 94.408ZM116.041 93.576L109.705 105H108.473L114.809 93.576H116.041ZM115.721 97.992C116.244 97.992 116.681 98.136 117.033 98.424C117.385 98.7013 117.652 99.1067 117.833 99.64C118.025 100.163 118.121 100.803 118.121 101.56C118.121 102.691 117.924 103.576 117.529 104.216C117.145 104.845 116.543 105.16 115.721 105.16C115.22 105.16 114.793 105.016 114.441 104.728C114.089 104.44 113.823 104.029 113.641 103.496C113.471 102.952 113.385 102.307 113.385 101.56C113.385 100.429 113.572 99.5547 113.945 98.936C114.319 98.3067 114.911 97.992 115.721 97.992ZM115.721 99C115.316 99 115.017 99.2133 114.825 99.64C114.644 100.067 114.553 100.707 114.553 101.56C114.553 102.424 114.644 103.075 114.825 103.512C115.017 103.939 115.316 104.152 115.721 104.152C116.137 104.152 116.447 103.939 116.649 103.512C116.852 103.085 116.953 102.435 116.953 101.56C116.953 100.707 116.852 100.067 116.649 99.64C116.447 99.2133 116.137 99 115.721 99Z" fill="black"/>
<path d="M61.2109 133.578H62.1641C62.1641 133.844 62.2474 134.096 62.4141 134.336C62.5859 134.576 62.8047 134.768 63.0703 134.914C63.3307 135.06 63.6276 135.172 63.9609 135.25C64.2943 135.323 64.6198 135.359 64.9375 135.359C65.2656 135.359 65.5964 135.328 65.9297 135.266C66.2682 135.198 66.5729 135.091 66.8438 134.945C67.0729 134.81 67.2604 134.641 67.4062 134.438C67.5573 134.229 67.6328 133.982 67.6328 133.695C67.6328 133.435 67.5833 133.211 67.4844 133.023C67.3854 132.836 67.2474 132.68 67.0703 132.555C66.9401 132.461 66.7917 132.385 66.625 132.328C66.4583 132.266 66.2839 132.216 66.1016 132.18C65.9141 132.148 65.724 132.128 65.5312 132.117C65.3385 132.102 65.151 132.094 64.9688 132.094H63.3672V131.273H64.9688C65.1458 131.273 65.3255 131.268 65.5078 131.258C65.6953 131.242 65.875 131.216 66.0469 131.18C66.2292 131.143 66.4036 131.094 66.5703 131.031C66.737 130.964 66.8828 130.88 67.0078 130.781C67.1536 130.667 67.2656 130.529 67.3438 130.367C67.4271 130.201 67.4688 130.005 67.4688 129.781C67.4688 129.495 67.3958 129.253 67.25 129.055C67.1042 128.852 66.9141 128.685 66.6797 128.555C66.4401 128.43 66.1667 128.339 65.8594 128.281C65.5573 128.219 65.25 128.188 64.9375 128.188C64.6302 128.188 64.3151 128.224 63.9922 128.297C63.6693 128.37 63.3802 128.479 63.125 128.625C62.8802 128.766 62.6849 128.938 62.5391 129.141C62.3932 129.339 62.3177 129.568 62.3125 129.828H61.3672C61.3932 129.417 61.513 129.06 61.7266 128.758C61.9401 128.451 62.2135 128.195 62.5469 127.992C62.875 127.794 63.2474 127.646 63.6641 127.547C64.0807 127.443 64.5052 127.391 64.9375 127.391C65.3646 127.391 65.7812 127.432 66.1875 127.516C66.5938 127.599 66.9557 127.729 67.2734 127.906C67.6172 128.099 67.8906 128.349 68.0938 128.656C68.3021 128.964 68.4062 129.341 68.4062 129.789C68.4062 130.055 68.3516 130.297 68.2422 130.516C68.1328 130.729 67.9818 130.919 67.7891 131.086C67.6432 131.216 67.474 131.331 67.2812 131.43C67.0938 131.523 66.8958 131.602 66.6875 131.664C66.9427 131.727 67.1823 131.81 67.4062 131.914C67.6302 132.013 67.8255 132.138 67.9922 132.289C68.1745 132.456 68.3177 132.656 68.4219 132.891C68.526 133.12 68.5781 133.383 68.5781 133.68C68.5781 134.117 68.4714 134.49 68.2578 134.797C68.0495 135.104 67.776 135.359 67.4375 135.562C67.0885 135.771 66.6953 135.919 66.2578 136.008C65.8203 136.102 65.3802 136.148 64.9375 136.148C64.4896 136.148 64.0391 136.099 63.5859 136C63.138 135.896 62.737 135.729 62.3828 135.5C62.0599 135.297 61.7891 135.036 61.5703 134.719C61.3568 134.401 61.237 134.021 61.2109 133.578ZM76.9297 136C76.8724 135.812 76.8281 135.612 76.7969 135.398C76.7708 135.185 76.7526 134.969 76.7422 134.75C76.5807 134.964 76.3906 135.159 76.1719 135.336C75.9583 135.508 75.724 135.654 75.4688 135.773C75.2083 135.898 74.9323 135.992 74.6406 136.055C74.3542 136.122 74.0547 136.156 73.7422 136.156C73.3516 136.156 72.9844 136.099 72.6406 135.984C72.2969 135.87 72 135.708 71.75 135.5C71.5 135.292 71.3021 135.042 71.1562 134.75C71.0104 134.453 70.9375 134.122 70.9375 133.758C70.9375 133.273 71.0443 132.862 71.2578 132.523C71.4766 132.185 71.7682 131.906 72.1328 131.688C72.4922 131.479 72.9115 131.328 73.3906 131.234C73.8698 131.135 74.3724 131.083 74.8984 131.078H76.7344V130.125C76.7292 129.807 76.6667 129.529 76.5469 129.289C76.4271 129.044 76.263 128.841 76.0547 128.68C75.8464 128.518 75.599 128.396 75.3125 128.312C75.0312 128.224 74.7266 128.18 74.3984 128.18C74.0964 128.18 73.8073 128.219 73.5312 128.297C73.2552 128.375 73.0104 128.487 72.7969 128.633C72.5885 128.779 72.4167 128.958 72.2812 129.172C72.151 129.38 72.0833 129.617 72.0781 129.883L71.1406 129.875C71.1562 129.516 71.2526 129.185 71.4297 128.883C71.6068 128.581 71.8438 128.318 72.1406 128.094C72.4375 127.875 72.7812 127.703 73.1719 127.578C73.5677 127.453 73.9896 127.391 74.4375 127.391C74.8854 127.391 75.3047 127.448 75.6953 127.562C76.0859 127.677 76.4271 127.846 76.7188 128.07C77.0052 128.305 77.2318 128.594 77.3984 128.938C77.5703 129.281 77.6589 129.682 77.6641 130.141V134.227C77.6641 134.513 77.6875 134.799 77.7344 135.086C77.7865 135.372 77.849 135.646 77.9219 135.906L77.9297 136H76.9297ZM73.8438 135.32C74.1719 135.326 74.4844 135.289 74.7812 135.211C75.0781 135.128 75.3516 135.013 75.6016 134.867C75.8516 134.721 76.0729 134.547 76.2656 134.344C76.4583 134.141 76.6146 133.914 76.7344 133.664V131.805H75.0312C74.5677 131.81 74.1276 131.849 73.7109 131.922C73.2943 131.995 72.9375 132.125 72.6406 132.312C72.401 132.464 72.2109 132.651 72.0703 132.875C71.9349 133.094 71.8672 133.359 71.8672 133.672C71.8672 133.927 71.9193 134.156 72.0234 134.359C72.1276 134.562 72.2682 134.734 72.4453 134.875C72.6224 135.021 72.8307 135.133 73.0703 135.211C73.3151 135.284 73.5729 135.32 73.8438 135.32ZM95.5703 124.539V125.398H95.4375C94.6927 125.404 94.0495 125.529 93.5078 125.773C92.9661 126.013 92.513 126.336 92.1484 126.742C91.7786 127.159 91.4948 127.651 91.2969 128.219C91.099 128.781 90.9818 129.37 90.9453 129.984C91.0911 129.771 91.2656 129.576 91.4688 129.398C91.6719 129.216 91.8958 129.06 92.1406 128.93C92.3802 128.805 92.638 128.708 92.9141 128.641C93.1901 128.568 93.4766 128.531 93.7734 128.531C94.3203 128.531 94.7969 128.635 95.2031 128.844C95.6146 129.052 95.9583 129.331 96.2344 129.68C96.5052 130.029 96.7083 130.43 96.8438 130.883C96.9792 131.331 97.0469 131.792 97.0469 132.266C97.0469 132.766 96.974 133.25 96.8281 133.719C96.6875 134.188 96.474 134.602 96.1875 134.961C95.9062 135.32 95.5547 135.609 95.1328 135.828C94.7161 136.047 94.2318 136.156 93.6797 136.156C93.1068 136.156 92.5938 136.044 92.1406 135.82C91.6927 135.596 91.3151 135.299 91.0078 134.93C90.6797 134.539 90.4297 134.086 90.2578 133.57C90.0859 133.055 90 132.523 90 131.977V130.977C90 130.091 90.1068 129.237 90.3203 128.414C90.5339 127.586 90.9141 126.852 91.4609 126.211C91.9036 125.685 92.4557 125.276 93.1172 124.984C93.7839 124.693 94.5573 124.544 95.4375 124.539H95.5703ZM93.6328 129.344C93.3307 129.344 93.0365 129.391 92.75 129.484C92.4688 129.573 92.2057 129.703 91.9609 129.875C91.7214 130.042 91.5104 130.245 91.3281 130.484C91.151 130.719 91.0208 130.982 90.9375 131.273V131.992C90.9375 132.482 91.0052 132.932 91.1406 133.344C91.276 133.755 91.4661 134.109 91.7109 134.406C91.9505 134.708 92.237 134.943 92.5703 135.109C92.9089 135.276 93.2786 135.357 93.6797 135.352C94.0807 135.352 94.4323 135.266 94.7344 135.094C95.0365 134.922 95.2917 134.695 95.5 134.414C95.7083 134.133 95.8646 133.81 95.9688 133.445C96.0729 133.076 96.125 132.695 96.125 132.305C96.125 131.914 96.0729 131.542 95.9688 131.188C95.8646 130.828 95.7083 130.513 95.5 130.242C95.2865 129.966 95.0234 129.747 94.7109 129.586C94.3984 129.424 94.0391 129.344 93.6328 129.344ZM116.172 136H115.242V132.414C114.862 132.555 114.461 132.664 114.039 132.742C113.617 132.82 113.185 132.862 112.742 132.867C112.201 132.867 111.716 132.807 111.289 132.688C110.867 132.562 110.51 132.37 110.219 132.109C109.922 131.854 109.695 131.526 109.539 131.125C109.388 130.724 109.31 130.245 109.305 129.688V127.547H110.234V129.688C110.24 130.099 110.294 130.453 110.398 130.75C110.503 131.047 110.654 131.292 110.852 131.484C111.06 131.688 111.323 131.836 111.641 131.93C111.964 132.023 112.331 132.068 112.742 132.062C112.956 132.062 113.177 132.055 113.406 132.039C113.641 132.018 113.872 131.987 114.102 131.945C114.299 131.914 114.495 131.872 114.688 131.82C114.885 131.768 115.07 131.706 115.242 131.633V127.547H116.172V136ZM124.977 136C124.919 135.812 124.875 135.612 124.844 135.398C124.818 135.185 124.799 134.969 124.789 134.75C124.628 134.964 124.438 135.159 124.219 135.336C124.005 135.508 123.771 135.654 123.516 135.773C123.255 135.898 122.979 135.992 122.688 136.055C122.401 136.122 122.102 136.156 121.789 136.156C121.398 136.156 121.031 136.099 120.688 135.984C120.344 135.87 120.047 135.708 119.797 135.5C119.547 135.292 119.349 135.042 119.203 134.75C119.057 134.453 118.984 134.122 118.984 133.758C118.984 133.273 119.091 132.862 119.305 132.523C119.523 132.185 119.815 131.906 120.18 131.688C120.539 131.479 120.958 131.328 121.438 131.234C121.917 131.135 122.419 131.083 122.945 131.078H124.781V130.125C124.776 129.807 124.714 129.529 124.594 129.289C124.474 129.044 124.31 128.841 124.102 128.68C123.893 128.518 123.646 128.396 123.359 128.312C123.078 128.224 122.773 128.18 122.445 128.18C122.143 128.18 121.854 128.219 121.578 128.297C121.302 128.375 121.057 128.487 120.844 128.633C120.635 128.779 120.464 128.958 120.328 129.172C120.198 129.38 120.13 129.617 120.125 129.883L119.188 129.875C119.203 129.516 119.299 129.185 119.477 128.883C119.654 128.581 119.891 128.318 120.188 128.094C120.484 127.875 120.828 127.703 121.219 127.578C121.615 127.453 122.036 127.391 122.484 127.391C122.932 127.391 123.352 127.448 123.742 127.562C124.133 127.677 124.474 127.846 124.766 128.07C125.052 128.305 125.279 128.594 125.445 128.938C125.617 129.281 125.706 129.682 125.711 130.141V134.227C125.711 134.513 125.734 134.799 125.781 135.086C125.833 135.372 125.896 135.646 125.969 135.906L125.977 136H124.977ZM121.891 135.32C122.219 135.326 122.531 135.289 122.828 135.211C123.125 135.128 123.398 135.013 123.648 134.867C123.898 134.721 124.12 134.547 124.312 134.344C124.505 134.141 124.661 133.914 124.781 133.664V131.805H123.078C122.615 131.81 122.174 131.849 121.758 131.922C121.341 131.995 120.984 132.125 120.688 132.312C120.448 132.464 120.258 132.651 120.117 132.875C119.982 133.094 119.914 133.359 119.914 133.672C119.914 133.927 119.966 134.156 120.07 134.359C120.174 134.562 120.315 134.734 120.492 134.875C120.669 135.021 120.878 135.133 121.117 135.211C121.362 135.284 121.62 135.32 121.891 135.32ZM132.203 135.359C132.516 135.359 132.812 135.315 133.094 135.227C133.38 135.133 133.635 135 133.859 134.828C134.078 134.656 134.255 134.451 134.391 134.211C134.526 133.966 134.607 133.693 134.633 133.391H135.523C135.497 133.786 135.391 134.154 135.203 134.492C135.021 134.831 134.779 135.122 134.477 135.367C134.174 135.617 133.828 135.812 133.438 135.953C133.047 136.089 132.635 136.156 132.203 136.156C131.589 136.156 131.052 136.039 130.594 135.805C130.135 135.57 129.753 135.255 129.445 134.859C129.138 134.474 128.909 134.029 128.758 133.523C128.607 133.013 128.529 132.484 128.523 131.938V131.609C128.529 131.068 128.607 130.542 128.758 130.031C128.909 129.521 129.138 129.07 129.445 128.68C129.747 128.289 130.128 127.977 130.586 127.742C131.044 127.508 131.581 127.391 132.195 127.391C132.669 127.391 133.104 127.466 133.5 127.617C133.901 127.763 134.247 127.969 134.539 128.234C134.831 128.5 135.062 128.818 135.234 129.188C135.406 129.557 135.503 129.958 135.523 130.391H134.633C134.612 130.073 134.536 129.781 134.406 129.516C134.281 129.245 134.112 129.01 133.898 128.812C133.68 128.62 133.424 128.469 133.133 128.359C132.846 128.25 132.534 128.195 132.195 128.195C131.706 128.195 131.286 128.294 130.938 128.492C130.594 128.69 130.312 128.948 130.094 129.266C129.875 129.594 129.714 129.961 129.609 130.367C129.51 130.773 129.461 131.188 129.461 131.609V131.938C129.461 132.365 129.51 132.784 129.609 133.195C129.714 133.602 129.875 133.964 130.094 134.281C130.312 134.604 130.594 134.865 130.938 135.062C131.286 135.26 131.708 135.359 132.203 135.359ZM137.906 131.648C137.906 131.076 137.992 130.531 138.164 130.016C138.336 129.5 138.583 129.049 138.906 128.664C139.229 128.273 139.622 127.964 140.086 127.734C140.549 127.505 141.078 127.391 141.672 127.391C142.26 127.391 142.786 127.505 143.25 127.734C143.719 127.964 144.117 128.271 144.445 128.656C144.763 129.047 145.008 129.5 145.18 130.016C145.352 130.531 145.44 131.076 145.445 131.648V131.906C145.44 132.479 145.352 133.023 145.18 133.539C145.013 134.049 144.768 134.5 144.445 134.891C144.122 135.276 143.729 135.583 143.266 135.812C142.802 136.042 142.276 136.156 141.688 136.156C141.094 136.156 140.562 136.044 140.094 135.82C139.625 135.591 139.232 135.281 138.914 134.891C138.586 134.505 138.336 134.055 138.164 133.539C137.992 133.023 137.906 132.479 137.906 131.906V131.648ZM138.836 131.906C138.836 132.354 138.898 132.786 139.023 133.203C139.148 133.62 139.331 133.987 139.57 134.305C139.81 134.628 140.107 134.885 140.461 135.078C140.815 135.266 141.224 135.359 141.688 135.359C142.146 135.359 142.549 135.266 142.898 135.078C143.247 134.885 143.544 134.628 143.789 134.305C144.023 133.982 144.201 133.615 144.32 133.203C144.445 132.786 144.51 132.354 144.516 131.906V131.648C144.51 131.206 144.445 130.776 144.32 130.359C144.195 129.943 144.016 129.576 143.781 129.258C143.536 128.935 143.237 128.677 142.883 128.484C142.534 128.292 142.13 128.195 141.672 128.195C141.208 128.195 140.802 128.292 140.453 128.484C140.104 128.677 139.81 128.935 139.57 129.258C139.331 129.576 139.148 129.943 139.023 130.359C138.898 130.776 138.836 131.206 138.836 131.648V131.906ZM147.938 136V127.547H151.125C151.562 127.552 151.977 127.594 152.367 127.672C152.763 127.75 153.109 127.875 153.406 128.047C153.703 128.224 153.938 128.456 154.109 128.742C154.281 129.029 154.367 129.38 154.367 129.797C154.367 130.073 154.323 130.318 154.234 130.531C154.146 130.745 154.018 130.93 153.852 131.086C153.732 131.211 153.589 131.318 153.422 131.406C153.26 131.49 153.083 131.565 152.891 131.633L152.953 131.664C153.219 131.716 153.456 131.799 153.664 131.914C153.878 132.029 154.06 132.172 154.211 132.344C154.367 132.516 154.487 132.714 154.57 132.938C154.659 133.161 154.703 133.401 154.703 133.656C154.703 134.068 154.625 134.422 154.469 134.719C154.312 135.01 154.096 135.25 153.82 135.438C153.549 135.63 153.227 135.771 152.852 135.859C152.482 135.948 152.086 135.995 151.664 136H147.938ZM148.867 132.109V135.211H151.664C151.966 135.206 152.247 135.174 152.508 135.117C152.768 135.055 152.995 134.956 153.188 134.82C153.37 134.701 153.513 134.544 153.617 134.352C153.721 134.154 153.773 133.917 153.773 133.641C153.773 133.37 153.716 133.138 153.602 132.945C153.487 132.753 153.336 132.594 153.148 132.469C152.956 132.349 152.732 132.26 152.477 132.203C152.221 132.141 151.951 132.109 151.664 132.109H148.867ZM148.867 131.32H151.258C151.596 131.32 151.906 131.289 152.188 131.227C152.469 131.164 152.706 131.062 152.898 130.922C153.065 130.807 153.195 130.661 153.289 130.484C153.388 130.302 153.438 130.083 153.438 129.828C153.438 129.536 153.372 129.294 153.242 129.102C153.117 128.909 152.948 128.758 152.734 128.648C152.526 128.534 152.281 128.456 152 128.414C151.724 128.367 151.432 128.344 151.125 128.344H148.867V131.32ZM172.891 127.547H173.828V136H172.891V129.031L168.109 136H167.18V127.547H168.109V134.523L172.891 127.547ZM188.062 129.805H189.016C189.38 129.799 189.724 129.747 190.047 129.648C190.37 129.549 190.651 129.406 190.891 129.219C191.13 129.031 191.32 128.802 191.461 128.531C191.602 128.255 191.672 127.94 191.672 127.586C191.672 127.216 191.615 126.888 191.5 126.602C191.385 126.31 191.224 126.065 191.016 125.867C190.807 125.674 190.555 125.529 190.258 125.43C189.966 125.326 189.641 125.273 189.281 125.273C188.922 125.273 188.591 125.328 188.289 125.438C187.987 125.547 187.727 125.703 187.508 125.906C187.289 126.115 187.115 126.362 186.984 126.648C186.859 126.935 186.792 127.255 186.781 127.609H185.852C185.857 127.156 185.945 126.74 186.117 126.359C186.294 125.974 186.534 125.641 186.836 125.359C187.143 125.078 187.503 124.859 187.914 124.703C188.331 124.547 188.786 124.469 189.281 124.469C189.766 124.469 190.211 124.542 190.617 124.688C191.023 124.828 191.375 125.031 191.672 125.297C191.964 125.568 192.19 125.898 192.352 126.289C192.518 126.68 192.602 127.122 192.602 127.617C192.602 127.904 192.555 128.177 192.461 128.438C192.367 128.698 192.237 128.938 192.07 129.156C191.898 129.375 191.69 129.573 191.445 129.75C191.201 129.922 190.924 130.065 190.617 130.18C190.971 130.273 191.284 130.406 191.555 130.578C191.831 130.75 192.062 130.953 192.25 131.188C192.438 131.422 192.578 131.685 192.672 131.977C192.766 132.263 192.812 132.573 192.812 132.906C192.812 133.417 192.721 133.872 192.539 134.273C192.362 134.674 192.117 135.013 191.805 135.289C191.492 135.57 191.122 135.786 190.695 135.938C190.268 136.083 189.81 136.156 189.32 136.156C188.826 136.156 188.357 136.083 187.914 135.938C187.477 135.786 187.096 135.57 186.773 135.289C186.445 135.008 186.182 134.669 185.984 134.273C185.792 133.872 185.69 133.419 185.68 132.914H186.609C186.62 133.289 186.695 133.628 186.836 133.93C186.977 134.227 187.167 134.482 187.406 134.695C187.646 134.909 187.93 135.073 188.258 135.188C188.586 135.302 188.94 135.359 189.32 135.359C189.695 135.359 190.039 135.307 190.352 135.203C190.664 135.099 190.935 134.945 191.164 134.742C191.388 134.539 191.562 134.289 191.688 133.992C191.818 133.69 191.883 133.339 191.883 132.938C191.883 132.521 191.805 132.167 191.648 131.875C191.497 131.578 191.294 131.336 191.039 131.148C190.773 130.961 190.466 130.826 190.117 130.742C189.768 130.654 189.401 130.607 189.016 130.602H188.062V129.805ZM202.93 131.5C202.93 132.141 202.857 132.742 202.711 133.305C202.57 133.867 202.357 134.359 202.07 134.781C201.784 135.203 201.417 135.539 200.969 135.789C200.521 136.034 199.987 136.156 199.367 136.156C198.862 136.156 198.409 136.076 198.008 135.914C197.607 135.747 197.263 135.508 196.977 135.195C196.555 134.758 196.247 134.216 196.055 133.57C195.867 132.924 195.773 132.234 195.773 131.5V129.125C195.773 128.49 195.846 127.885 195.992 127.312C196.138 126.74 196.359 126.242 196.656 125.82C196.948 125.398 197.315 125.068 197.758 124.828C198.206 124.583 198.737 124.461 199.352 124.461C199.857 124.461 200.312 124.547 200.719 124.719C201.125 124.891 201.469 125.13 201.75 125.438C202.151 125.859 202.445 126.398 202.633 127.055C202.826 127.706 202.924 128.396 202.93 129.125V131.5ZM196.797 132.18L201.852 127.625C201.784 127.271 201.682 126.951 201.547 126.664C201.417 126.372 201.25 126.122 201.047 125.914C200.844 125.706 200.602 125.547 200.32 125.438C200.039 125.323 199.716 125.266 199.352 125.266C198.883 125.266 198.49 125.354 198.172 125.531C197.859 125.708 197.591 125.958 197.367 126.281C197.138 126.599 196.969 126.997 196.859 127.477C196.755 127.956 196.703 128.453 196.703 128.969V130.961C196.703 131.159 196.711 131.362 196.727 131.57C196.742 131.773 196.766 131.977 196.797 132.18ZM202 131.648V129.805C201.995 129.638 201.987 129.435 201.977 129.195C201.966 128.956 201.948 128.737 201.922 128.539L196.875 133.086C196.948 133.43 197.052 133.745 197.188 134.031C197.328 134.312 197.503 134.552 197.711 134.75C197.914 134.943 198.151 135.094 198.422 135.203C198.698 135.307 199.013 135.359 199.367 135.359C199.826 135.359 200.216 135.266 200.539 135.078C200.867 134.891 201.13 134.641 201.328 134.328C201.568 133.99 201.737 133.589 201.836 133.125C201.94 132.661 201.995 132.169 202 131.648ZM218.461 134.727L220.828 127.547H221.953V136H221.039V129.664L218.789 136H218.141L215.836 129.477V136H214.922V127.547H216.102L218.461 134.727ZM230.547 127.547H231.484V136H230.547V129.031L225.766 136H224.836V127.547H225.766V134.523L230.547 127.547ZM241.094 136H240.156V132.125H235.375V136H234.445V127.547H235.375V131.328H240.156V127.547H241.094V136ZM244.531 139.414C244.406 139.414 244.268 139.401 244.117 139.375C243.971 139.354 243.844 139.333 243.734 139.312L243.844 138.523C243.958 138.534 244.076 138.544 244.195 138.555C244.315 138.57 244.419 138.578 244.508 138.578C244.747 138.578 244.966 138.529 245.164 138.43C245.362 138.336 245.539 138.214 245.695 138.062C245.852 137.917 245.987 137.75 246.102 137.562C246.216 137.38 246.315 137.203 246.398 137.031L246.977 135.797L243.172 127.547H244.227L247.133 133.969L247.438 134.727L247.734 133.984L250.492 127.547H251.555L247.188 137.359C247.073 137.615 246.938 137.862 246.781 138.102C246.625 138.346 246.44 138.565 246.227 138.758C246.013 138.956 245.766 139.115 245.484 139.234C245.208 139.354 244.891 139.414 244.531 139.414ZM261.094 128.344H257.492V136H256.547V128.344H253.07V127.547H261.094V128.344Z" fill="black"/>
<path d="M65.328 184.176C62.688 184.176 60.896 182.064 60.896 178.384C60.896 174.784 62.688 172.624 65.328 172.624C67.904 172.624 69.648 174.784 69.648 178.384C69.648 182.064 67.904 184.176 65.328 184.176ZM62.352 178.4C62.352 181.408 63.536 182.944 65.328 182.944C67.056 182.944 68.192 181.408 68.192 178.4C68.192 175.44 67.056 173.856 65.328 173.856C63.536 173.856 62.352 175.44 62.352 178.4ZM71.1713 180.336V179.088H77.8913V180.336H71.1713ZM79.2993 180.864L80.7873 180.784C80.9153 182.144 81.9393 182.96 83.3953 182.944C84.9633 182.928 86.0193 181.824 86.0193 180.368C86.0193 178.864 84.9793 177.776 83.5073 177.776C82.4833 177.776 81.6193 178.16 80.9793 179.008L79.6993 178.72L80.5473 172.8H87.0433V174.064H81.6833L81.1873 177.44C81.8753 176.848 82.7073 176.56 83.6513 176.56C85.8913 176.544 87.4753 178.144 87.4753 180.352C87.4753 182.56 85.8113 184.176 83.3953 184.176C81.1553 184.176 79.5553 182.976 79.2993 180.864ZM93.453 184.176C90.813 184.176 89.021 182.064 89.021 178.384C89.021 174.784 90.813 172.624 93.453 172.624C96.029 172.624 97.773 174.784 97.773 178.384C97.773 182.064 96.029 184.176 93.453 184.176ZM90.477 178.4C90.477 181.408 91.661 182.944 93.453 182.944C95.181 182.944 96.317 181.408 96.317 178.4C96.317 175.44 95.181 173.856 93.453 173.856C91.661 173.856 90.477 175.44 90.477 178.4ZM101.776 172.416C102.566 172.416 103.163 172.731 103.568 173.36C103.974 173.979 104.176 174.853 104.176 175.984C104.176 177.115 103.979 178 103.584 178.64C103.2 179.269 102.598 179.584 101.776 179.584C101.275 179.584 100.848 179.44 100.496 179.152C100.144 178.864 99.8776 178.453 99.6963 177.92C99.5256 177.376 99.4403 176.731 99.4403 175.984C99.4403 174.853 99.6269 173.979 100 173.36C100.374 172.731 100.966 172.416 101.776 172.416ZM101.776 173.408C101.371 173.408 101.072 173.627 100.88 174.064C100.699 174.491 100.608 175.131 100.608 175.984C100.608 176.837 100.699 177.483 100.88 177.92C101.072 178.357 101.371 178.576 101.776 178.576C102.192 178.576 102.502 178.363 102.704 177.936C102.907 177.499 103.008 176.848 103.008 175.984C103.008 175.131 102.907 174.491 102.704 174.064C102.502 173.627 102.192 173.408 101.776 173.408ZM109.088 172.576L102.752 184H101.52L107.856 172.576H109.088ZM108.768 176.992C109.291 176.992 109.728 177.136 110.08 177.424C110.432 177.701 110.699 178.107 110.88 178.64C111.072 179.163 111.168 179.803 111.168 180.56C111.168 181.691 110.971 182.576 110.576 183.216C110.192 183.845 109.59 184.16 108.768 184.16C108.267 184.16 107.84 184.016 107.488 183.728C107.136 183.44 106.87 183.029 106.688 182.496C106.518 181.952 106.432 181.307 106.432 180.56C106.432 179.429 106.619 178.555 106.992 177.936C107.366 177.307 107.958 176.992 108.768 176.992ZM108.768 178C108.363 178 108.064 178.213 107.872 178.64C107.691 179.067 107.6 179.707 107.6 180.56C107.6 181.424 107.691 182.075 107.872 182.512C108.064 182.939 108.363 183.152 108.768 183.152C109.184 183.152 109.494 182.939 109.696 182.512C109.899 182.085 110 181.435 110 180.56C110 179.707 109.899 179.067 109.696 178.64C109.494 178.213 109.184 178 108.768 178Z" fill="black"/>
<path d="M61.2109 212.578H62.1641C62.1641 212.844 62.2474 213.096 62.4141 213.336C62.5859 213.576 62.8047 213.768 63.0703 213.914C63.3307 214.06 63.6276 214.172 63.9609 214.25C64.2943 214.323 64.6198 214.359 64.9375 214.359C65.2656 214.359 65.5964 214.328 65.9297 214.266C66.2682 214.198 66.5729 214.091 66.8438 213.945C67.0729 213.81 67.2604 213.641 67.4062 213.438C67.5573 213.229 67.6328 212.982 67.6328 212.695C67.6328 212.435 67.5833 212.211 67.4844 212.023C67.3854 211.836 67.2474 211.68 67.0703 211.555C66.9401 211.461 66.7917 211.385 66.625 211.328C66.4583 211.266 66.2839 211.216 66.1016 211.18C65.9141 211.148 65.724 211.128 65.5312 211.117C65.3385 211.102 65.151 211.094 64.9688 211.094H63.3672V210.273H64.9688C65.1458 210.273 65.3255 210.268 65.5078 210.258C65.6953 210.242 65.875 210.216 66.0469 210.18C66.2292 210.143 66.4036 210.094 66.5703 210.031C66.737 209.964 66.8828 209.88 67.0078 209.781C67.1536 209.667 67.2656 209.529 67.3438 209.367C67.4271 209.201 67.4688 209.005 67.4688 208.781C67.4688 208.495 67.3958 208.253 67.25 208.055C67.1042 207.852 66.9141 207.685 66.6797 207.555C66.4401 207.43 66.1667 207.339 65.8594 207.281C65.5573 207.219 65.25 207.188 64.9375 207.188C64.6302 207.188 64.3151 207.224 63.9922 207.297C63.6693 207.37 63.3802 207.479 63.125 207.625C62.8802 207.766 62.6849 207.938 62.5391 208.141C62.3932 208.339 62.3177 208.568 62.3125 208.828H61.3672C61.3932 208.417 61.513 208.06 61.7266 207.758C61.9401 207.451 62.2135 207.195 62.5469 206.992C62.875 206.794 63.2474 206.646 63.6641 206.547C64.0807 206.443 64.5052 206.391 64.9375 206.391C65.3646 206.391 65.7812 206.432 66.1875 206.516C66.5938 206.599 66.9557 206.729 67.2734 206.906C67.6172 207.099 67.8906 207.349 68.0938 207.656C68.3021 207.964 68.4062 208.341 68.4062 208.789C68.4062 209.055 68.3516 209.297 68.2422 209.516C68.1328 209.729 67.9818 209.919 67.7891 210.086C67.6432 210.216 67.474 210.331 67.2812 210.43C67.0938 210.523 66.8958 210.602 66.6875 210.664C66.9427 210.727 67.1823 210.81 67.4062 210.914C67.6302 211.013 67.8255 211.138 67.9922 211.289C68.1745 211.456 68.3177 211.656 68.4219 211.891C68.526 212.12 68.5781 212.383 68.5781 212.68C68.5781 213.117 68.4714 213.49 68.2578 213.797C68.0495 214.104 67.776 214.359 67.4375 214.562C67.0885 214.771 66.6953 214.919 66.2578 215.008C65.8203 215.102 65.3802 215.148 64.9375 215.148C64.4896 215.148 64.0391 215.099 63.5859 215C63.138 214.896 62.737 214.729 62.3828 214.5C62.0599 214.297 61.7891 214.036 61.5703 213.719C61.3568 213.401 61.237 213.021 61.2109 212.578ZM76.9297 215C76.8724 214.812 76.8281 214.612 76.7969 214.398C76.7708 214.185 76.7526 213.969 76.7422 213.75C76.5807 213.964 76.3906 214.159 76.1719 214.336C75.9583 214.508 75.724 214.654 75.4688 214.773C75.2083 214.898 74.9323 214.992 74.6406 215.055C74.3542 215.122 74.0547 215.156 73.7422 215.156C73.3516 215.156 72.9844 215.099 72.6406 214.984C72.2969 214.87 72 214.708 71.75 214.5C71.5 214.292 71.3021 214.042 71.1562 213.75C71.0104 213.453 70.9375 213.122 70.9375 212.758C70.9375 212.273 71.0443 211.862 71.2578 211.523C71.4766 211.185 71.7682 210.906 72.1328 210.688C72.4922 210.479 72.9115 210.328 73.3906 210.234C73.8698 210.135 74.3724 210.083 74.8984 210.078H76.7344V209.125C76.7292 208.807 76.6667 208.529 76.5469 208.289C76.4271 208.044 76.263 207.841 76.0547 207.68C75.8464 207.518 75.599 207.396 75.3125 207.312C75.0312 207.224 74.7266 207.18 74.3984 207.18C74.0964 207.18 73.8073 207.219 73.5312 207.297C73.2552 207.375 73.0104 207.487 72.7969 207.633C72.5885 207.779 72.4167 207.958 72.2812 208.172C72.151 208.38 72.0833 208.617 72.0781 208.883L71.1406 208.875C71.1562 208.516 71.2526 208.185 71.4297 207.883C71.6068 207.581 71.8438 207.318 72.1406 207.094C72.4375 206.875 72.7812 206.703 73.1719 206.578C73.5677 206.453 73.9896 206.391 74.4375 206.391C74.8854 206.391 75.3047 206.448 75.6953 206.562C76.0859 206.677 76.4271 206.846 76.7188 207.07C77.0052 207.305 77.2318 207.594 77.3984 207.938C77.5703 208.281 77.6589 208.682 77.6641 209.141V213.227C77.6641 213.513 77.6875 213.799 77.7344 214.086C77.7865 214.372 77.849 214.646 77.9219 214.906L77.9297 215H76.9297ZM73.8438 214.32C74.1719 214.326 74.4844 214.289 74.7812 214.211C75.0781 214.128 75.3516 214.013 75.6016 213.867C75.8516 213.721 76.0729 213.547 76.2656 213.344C76.4583 213.141 76.6146 212.914 76.7344 212.664V210.805H75.0312C74.5677 210.81 74.1276 210.849 73.7109 210.922C73.2943 210.995 72.9375 211.125 72.6406 211.312C72.401 211.464 72.2109 211.651 72.0703 211.875C71.9349 212.094 71.8672 212.359 71.8672 212.672C71.8672 212.927 71.9193 213.156 72.0234 213.359C72.1276 213.562 72.2682 213.734 72.4453 213.875C72.6224 214.021 72.8307 214.133 73.0703 214.211C73.3151 214.284 73.5729 214.32 73.8438 214.32ZM96.9766 215H89.8516V214.273L93.5781 210.055C93.8542 209.742 94.1068 209.443 94.3359 209.156C94.5703 208.87 94.7708 208.586 94.9375 208.305C95.1042 208.023 95.2344 207.745 95.3281 207.469C95.4219 207.188 95.4688 206.898 95.4688 206.602C95.4688 206.258 95.4115 205.943 95.2969 205.656C95.1823 205.37 95.0208 205.122 94.8125 204.914C94.599 204.711 94.3438 204.555 94.0469 204.445C93.7552 204.331 93.4323 204.273 93.0781 204.273C92.6771 204.273 92.3203 204.341 92.0078 204.477C91.6953 204.607 91.4323 204.786 91.2188 205.016C91 205.255 90.8333 205.536 90.7188 205.859C90.6042 206.177 90.5417 206.526 90.5312 206.906H89.6016C89.6068 206.438 89.6927 205.995 89.8594 205.578C90.026 205.161 90.2604 204.797 90.5625 204.484C90.8594 204.172 91.2188 203.924 91.6406 203.742C92.0677 203.56 92.5469 203.469 93.0781 203.469C93.5781 203.469 94.0312 203.544 94.4375 203.695C94.849 203.841 95.2005 204.049 95.4922 204.32C95.7839 204.596 96.0078 204.924 96.1641 205.305C96.3255 205.685 96.4062 206.107 96.4062 206.57C96.4062 206.945 96.3385 207.312 96.2031 207.672C96.0729 208.026 95.901 208.372 95.6875 208.711C95.474 209.049 95.2344 209.378 94.9688 209.695C94.7031 210.013 94.4375 210.323 94.1719 210.625L90.9922 214.203H96.9766V215ZM116.172 215H115.242V211.414C114.862 211.555 114.461 211.664 114.039 211.742C113.617 211.82 113.185 211.862 112.742 211.867C112.201 211.867 111.716 211.807 111.289 211.688C110.867 211.562 110.51 211.37 110.219 211.109C109.922 210.854 109.695 210.526 109.539 210.125C109.388 209.724 109.31 209.245 109.305 208.688V206.547H110.234V208.688C110.24 209.099 110.294 209.453 110.398 209.75C110.503 210.047 110.654 210.292 110.852 210.484C111.06 210.688 111.323 210.836 111.641 210.93C111.964 211.023 112.331 211.068 112.742 211.062C112.956 211.062 113.177 211.055 113.406 211.039C113.641 211.018 113.872 210.987 114.102 210.945C114.299 210.914 114.495 210.872 114.688 210.82C114.885 210.768 115.07 210.706 115.242 210.633V206.547H116.172V215ZM124.977 215C124.919 214.812 124.875 214.612 124.844 214.398C124.818 214.185 124.799 213.969 124.789 213.75C124.628 213.964 124.438 214.159 124.219 214.336C124.005 214.508 123.771 214.654 123.516 214.773C123.255 214.898 122.979 214.992 122.688 215.055C122.401 215.122 122.102 215.156 121.789 215.156C121.398 215.156 121.031 215.099 120.688 214.984C120.344 214.87 120.047 214.708 119.797 214.5C119.547 214.292 119.349 214.042 119.203 213.75C119.057 213.453 118.984 213.122 118.984 212.758C118.984 212.273 119.091 211.862 119.305 211.523C119.523 211.185 119.815 210.906 120.18 210.688C120.539 210.479 120.958 210.328 121.438 210.234C121.917 210.135 122.419 210.083 122.945 210.078H124.781V209.125C124.776 208.807 124.714 208.529 124.594 208.289C124.474 208.044 124.31 207.841 124.102 207.68C123.893 207.518 123.646 207.396 123.359 207.312C123.078 207.224 122.773 207.18 122.445 207.18C122.143 207.18 121.854 207.219 121.578 207.297C121.302 207.375 121.057 207.487 120.844 207.633C120.635 207.779 120.464 207.958 120.328 208.172C120.198 208.38 120.13 208.617 120.125 208.883L119.188 208.875C119.203 208.516 119.299 208.185 119.477 207.883C119.654 207.581 119.891 207.318 120.188 207.094C120.484 206.875 120.828 206.703 121.219 206.578C121.615 206.453 122.036 206.391 122.484 206.391C122.932 206.391 123.352 206.448 123.742 206.562C124.133 206.677 124.474 206.846 124.766 207.07C125.052 207.305 125.279 207.594 125.445 207.938C125.617 208.281 125.706 208.682 125.711 209.141V213.227C125.711 213.513 125.734 213.799 125.781 214.086C125.833 214.372 125.896 214.646 125.969 214.906L125.977 215H124.977ZM121.891 214.32C122.219 214.326 122.531 214.289 122.828 214.211C123.125 214.128 123.398 214.013 123.648 213.867C123.898 213.721 124.12 213.547 124.312 213.344C124.505 213.141 124.661 212.914 124.781 212.664V210.805H123.078C122.615 210.81 122.174 210.849 121.758 210.922C121.341 210.995 120.984 211.125 120.688 211.312C120.448 211.464 120.258 211.651 120.117 211.875C119.982 212.094 119.914 212.359 119.914 212.672C119.914 212.927 119.966 213.156 120.07 213.359C120.174 213.562 120.315 213.734 120.492 213.875C120.669 214.021 120.878 214.133 121.117 214.211C121.362 214.284 121.62 214.32 121.891 214.32ZM132.203 214.359C132.516 214.359 132.812 214.315 133.094 214.227C133.38 214.133 133.635 214 133.859 213.828C134.078 213.656 134.255 213.451 134.391 213.211C134.526 212.966 134.607 212.693 134.633 212.391H135.523C135.497 212.786 135.391 213.154 135.203 213.492C135.021 213.831 134.779 214.122 134.477 214.367C134.174 214.617 133.828 214.812 133.438 214.953C133.047 215.089 132.635 215.156 132.203 215.156C131.589 215.156 131.052 215.039 130.594 214.805C130.135 214.57 129.753 214.255 129.445 213.859C129.138 213.474 128.909 213.029 128.758 212.523C128.607 212.013 128.529 211.484 128.523 210.938V210.609C128.529 210.068 128.607 209.542 128.758 209.031C128.909 208.521 129.138 208.07 129.445 207.68C129.747 207.289 130.128 206.977 130.586 206.742C131.044 206.508 131.581 206.391 132.195 206.391C132.669 206.391 133.104 206.466 133.5 206.617C133.901 206.763 134.247 206.969 134.539 207.234C134.831 207.5 135.062 207.818 135.234 208.188C135.406 208.557 135.503 208.958 135.523 209.391H134.633C134.612 209.073 134.536 208.781 134.406 208.516C134.281 208.245 134.112 208.01 133.898 207.812C133.68 207.62 133.424 207.469 133.133 207.359C132.846 207.25 132.534 207.195 132.195 207.195C131.706 207.195 131.286 207.294 130.938 207.492C130.594 207.69 130.312 207.948 130.094 208.266C129.875 208.594 129.714 208.961 129.609 209.367C129.51 209.773 129.461 210.188 129.461 210.609V210.938C129.461 211.365 129.51 211.784 129.609 212.195C129.714 212.602 129.875 212.964 130.094 213.281C130.312 213.604 130.594 213.865 130.938 214.062C131.286 214.26 131.708 214.359 132.203 214.359ZM144.195 215C144.138 214.812 144.094 214.612 144.062 214.398C144.036 214.185 144.018 213.969 144.008 213.75C143.846 213.964 143.656 214.159 143.438 214.336C143.224 214.508 142.99 214.654 142.734 214.773C142.474 214.898 142.198 214.992 141.906 215.055C141.62 215.122 141.32 215.156 141.008 215.156C140.617 215.156 140.25 215.099 139.906 214.984C139.562 214.87 139.266 214.708 139.016 214.5C138.766 214.292 138.568 214.042 138.422 213.75C138.276 213.453 138.203 213.122 138.203 212.758C138.203 212.273 138.31 211.862 138.523 211.523C138.742 211.185 139.034 210.906 139.398 210.688C139.758 210.479 140.177 210.328 140.656 210.234C141.135 210.135 141.638 210.083 142.164 210.078H144V209.125C143.995 208.807 143.932 208.529 143.812 208.289C143.693 208.044 143.529 207.841 143.32 207.68C143.112 207.518 142.865 207.396 142.578 207.312C142.297 207.224 141.992 207.18 141.664 207.18C141.362 207.18 141.073 207.219 140.797 207.297C140.521 207.375 140.276 207.487 140.062 207.633C139.854 207.779 139.682 207.958 139.547 208.172C139.417 208.38 139.349 208.617 139.344 208.883L138.406 208.875C138.422 208.516 138.518 208.185 138.695 207.883C138.872 207.581 139.109 207.318 139.406 207.094C139.703 206.875 140.047 206.703 140.438 206.578C140.833 206.453 141.255 206.391 141.703 206.391C142.151 206.391 142.57 206.448 142.961 206.562C143.352 206.677 143.693 206.846 143.984 207.07C144.271 207.305 144.497 207.594 144.664 207.938C144.836 208.281 144.924 208.682 144.93 209.141V213.227C144.93 213.513 144.953 213.799 145 214.086C145.052 214.372 145.115 214.646 145.188 214.906L145.195 215H144.195ZM141.109 214.32C141.438 214.326 141.75 214.289 142.047 214.211C142.344 214.128 142.617 214.013 142.867 213.867C143.117 213.721 143.339 213.547 143.531 213.344C143.724 213.141 143.88 212.914 144 212.664V210.805H142.297C141.833 210.81 141.393 210.849 140.977 210.922C140.56 210.995 140.203 211.125 139.906 211.312C139.667 211.464 139.477 211.651 139.336 211.875C139.201 212.094 139.133 212.359 139.133 212.672C139.133 212.927 139.185 213.156 139.289 213.359C139.393 213.562 139.534 213.734 139.711 213.875C139.888 214.021 140.096 214.133 140.336 214.211C140.581 214.284 140.839 214.32 141.109 214.32ZM163.281 206.547H164.219V215H163.281V208.031L158.5 215H157.57V206.547H158.5V213.523L163.281 206.547ZM178.453 208.805H179.406C179.771 208.799 180.115 208.747 180.438 208.648C180.76 208.549 181.042 208.406 181.281 208.219C181.521 208.031 181.711 207.802 181.852 207.531C181.992 207.255 182.062 206.94 182.062 206.586C182.062 206.216 182.005 205.888 181.891 205.602C181.776 205.31 181.615 205.065 181.406 204.867C181.198 204.674 180.945 204.529 180.648 204.43C180.357 204.326 180.031 204.273 179.672 204.273C179.312 204.273 178.982 204.328 178.68 204.438C178.378 204.547 178.117 204.703 177.898 204.906C177.68 205.115 177.505 205.362 177.375 205.648C177.25 205.935 177.182 206.255 177.172 206.609H176.242C176.247 206.156 176.336 205.74 176.508 205.359C176.685 204.974 176.924 204.641 177.227 204.359C177.534 204.078 177.893 203.859 178.305 203.703C178.721 203.547 179.177 203.469 179.672 203.469C180.156 203.469 180.602 203.542 181.008 203.688C181.414 203.828 181.766 204.031 182.062 204.297C182.354 204.568 182.581 204.898 182.742 205.289C182.909 205.68 182.992 206.122 182.992 206.617C182.992 206.904 182.945 207.177 182.852 207.438C182.758 207.698 182.628 207.938 182.461 208.156C182.289 208.375 182.081 208.573 181.836 208.75C181.591 208.922 181.315 209.065 181.008 209.18C181.362 209.273 181.674 209.406 181.945 209.578C182.221 209.75 182.453 209.953 182.641 210.188C182.828 210.422 182.969 210.685 183.062 210.977C183.156 211.263 183.203 211.573 183.203 211.906C183.203 212.417 183.112 212.872 182.93 213.273C182.753 213.674 182.508 214.013 182.195 214.289C181.883 214.57 181.513 214.786 181.086 214.938C180.659 215.083 180.201 215.156 179.711 215.156C179.216 215.156 178.747 215.083 178.305 214.938C177.867 214.786 177.487 214.57 177.164 214.289C176.836 214.008 176.573 213.669 176.375 213.273C176.182 212.872 176.081 212.419 176.07 211.914H177C177.01 212.289 177.086 212.628 177.227 212.93C177.367 213.227 177.557 213.482 177.797 213.695C178.036 213.909 178.32 214.073 178.648 214.188C178.977 214.302 179.331 214.359 179.711 214.359C180.086 214.359 180.43 214.307 180.742 214.203C181.055 214.099 181.326 213.945 181.555 213.742C181.779 213.539 181.953 213.289 182.078 212.992C182.208 212.69 182.273 212.339 182.273 211.938C182.273 211.521 182.195 211.167 182.039 210.875C181.888 210.578 181.685 210.336 181.43 210.148C181.164 209.961 180.857 209.826 180.508 209.742C180.159 209.654 179.792 209.607 179.406 209.602H178.453V208.805ZM193.32 210.5C193.32 211.141 193.247 211.742 193.102 212.305C192.961 212.867 192.747 213.359 192.461 213.781C192.174 214.203 191.807 214.539 191.359 214.789C190.911 215.034 190.378 215.156 189.758 215.156C189.253 215.156 188.799 215.076 188.398 214.914C187.997 214.747 187.654 214.508 187.367 214.195C186.945 213.758 186.638 213.216 186.445 212.57C186.258 211.924 186.164 211.234 186.164 210.5V208.125C186.164 207.49 186.237 206.885 186.383 206.312C186.529 205.74 186.75 205.242 187.047 204.82C187.339 204.398 187.706 204.068 188.148 203.828C188.596 203.583 189.128 203.461 189.742 203.461C190.247 203.461 190.703 203.547 191.109 203.719C191.516 203.891 191.859 204.13 192.141 204.438C192.542 204.859 192.836 205.398 193.023 206.055C193.216 206.706 193.315 207.396 193.32 208.125V210.5ZM187.188 211.18L192.242 206.625C192.174 206.271 192.073 205.951 191.938 205.664C191.807 205.372 191.641 205.122 191.438 204.914C191.234 204.706 190.992 204.547 190.711 204.438C190.43 204.323 190.107 204.266 189.742 204.266C189.273 204.266 188.88 204.354 188.562 204.531C188.25 204.708 187.982 204.958 187.758 205.281C187.529 205.599 187.359 205.997 187.25 206.477C187.146 206.956 187.094 207.453 187.094 207.969V209.961C187.094 210.159 187.102 210.362 187.117 210.57C187.133 210.773 187.156 210.977 187.188 211.18ZM192.391 210.648V208.805C192.385 208.638 192.378 208.435 192.367 208.195C192.357 207.956 192.339 207.737 192.312 207.539L187.266 212.086C187.339 212.43 187.443 212.745 187.578 213.031C187.719 213.312 187.893 213.552 188.102 213.75C188.305 213.943 188.542 214.094 188.812 214.203C189.089 214.307 189.404 214.359 189.758 214.359C190.216 214.359 190.607 214.266 190.93 214.078C191.258 213.891 191.521 213.641 191.719 213.328C191.958 212.99 192.128 212.589 192.227 212.125C192.331 211.661 192.385 211.169 192.391 210.648ZM208.852 213.727L211.219 206.547H212.344V215H211.43V208.664L209.18 215H208.531L206.227 208.477V215H205.312V206.547H206.492L208.852 213.727ZM220.938 206.547H221.875V215H220.938V208.031L216.156 215H215.227V206.547H216.156V213.523L220.938 206.547ZM231.484 215H230.547V211.125H225.766V215H224.836V206.547H225.766V210.328H230.547V206.547H231.484V215ZM234.922 218.414C234.797 218.414 234.659 218.401 234.508 218.375C234.362 218.354 234.234 218.333 234.125 218.312L234.234 217.523C234.349 217.534 234.466 217.544 234.586 217.555C234.706 217.57 234.81 217.578 234.898 217.578C235.138 217.578 235.357 217.529 235.555 217.43C235.753 217.336 235.93 217.214 236.086 217.062C236.242 216.917 236.378 216.75 236.492 216.562C236.607 216.38 236.706 216.203 236.789 216.031L237.367 214.797L233.562 206.547H234.617L237.523 212.969L237.828 213.727L238.125 212.984L240.883 206.547H241.945L237.578 216.359C237.464 216.615 237.328 216.862 237.172 217.102C237.016 217.346 236.831 217.565 236.617 217.758C236.404 217.956 236.156 218.115 235.875 218.234C235.599 218.354 235.281 218.414 234.922 218.414ZM251.484 207.344H247.883V215H246.938V207.344H243.461V206.547H251.484V207.344Z" fill="black"/>
<line x1="30.5" y1="169" x2="30.5" y2="218" stroke="black"/>
</svg>
