<svg width="620" height="291" viewBox="0 0 620 291" fill="none" xmlns="http://www.w3.org/2000/svg">
<rect width="620" height="291" fill="#E9E8E1"/>
<path d="M30 37.2L41 37.2L41 30L52 39L41 48L41 40.8L30 40.8L30 37.2Z" fill="black"/>
<path d="M63.408 45V33.8H68.48C70.368 33.8 71.744 34.952 71.744 36.696C71.744 37.752 71.152 38.76 70.032 39.224C71.424 39.608 72.08 40.664 72.08 41.928C72.08 43.736 70.704 45 68.64 45H63.408ZM64.848 43.8H68.464C69.744 43.8 70.608 43.032 70.608 41.864C70.608 40.68 69.744 39.896 68.464 39.896H64.848V43.8ZM64.848 38.664H68.384C69.52 38.664 70.288 37.928 70.288 36.824C70.288 35.736 69.488 35 68.336 35H64.848V38.664ZM79.4365 39.896C79.3085 38.712 78.5405 37.912 77.3885 37.912C75.9325 37.912 74.9405 39.112 74.9405 40.984C74.9405 42.824 75.9325 44.024 77.3885 44.024C78.5725 44.024 79.3885 43.304 79.5005 42.056L80.8925 42.136C80.6845 44.04 79.3405 45.176 77.3885 45.176C75.1805 45.176 73.5485 43.416 73.5485 40.968C73.5485 38.568 75.1805 36.776 77.3885 36.776C79.3725 36.776 80.6845 37.976 80.8445 39.816L79.4365 39.896ZM83.9049 45H82.5449V36.968H89.1689V45H87.8089V38.12H83.9049V45ZM94.9986 45.176C92.7586 45.176 91.1266 43.448 91.1266 40.968C91.1266 38.504 92.7586 36.776 94.9986 36.776C97.2386 36.776 98.8706 38.504 98.8706 40.968C98.8706 43.448 97.2386 45.176 94.9986 45.176ZM92.5186 40.984C92.5186 42.856 93.4946 44.04 94.9986 44.04C96.5026 44.04 97.4786 42.856 97.4786 40.984C97.4786 39.096 96.5026 37.912 94.9986 37.912C93.4946 37.912 92.5186 39.096 92.5186 40.984ZM106.106 45H104.89L102.106 38.392V45H100.826V36.968H102.73L105.514 43.672L108.282 36.968H110.17V45H108.906V38.328L106.106 45ZM115.999 45.176C113.759 45.176 112.127 43.448 112.127 40.968C112.127 38.504 113.759 36.776 115.999 36.776C118.239 36.776 119.871 38.504 119.871 40.968C119.871 43.448 118.239 45.176 115.999 45.176ZM113.519 40.984C113.519 42.856 114.495 44.04 115.999 44.04C117.503 44.04 118.479 42.856 118.479 40.984C118.479 39.096 117.503 37.912 115.999 37.912C114.495 37.912 113.519 39.096 113.519 40.984ZM123.186 45H121.826V36.968H127.202V38.12H123.186V45ZM133.143 43.432C132.743 44.456 131.655 45.176 130.263 45.176C128.679 45.176 127.671 44.264 127.671 42.936C127.671 41.608 128.599 40.872 130.087 40.584L131.767 40.248C132.775 40.04 133.095 39.768 133.095 39.272C133.095 38.44 132.391 37.88 131.303 37.88C130.103 37.88 129.367 38.472 129.255 39.496L127.911 39.4C128.119 37.656 129.527 36.776 131.303 36.776C133.143 36.776 134.471 37.72 134.471 39.576V43.608C134.471 43.896 134.647 44.072 134.935 44.072C135.031 44.072 135.175 44.056 135.287 44.024V45.016C135.031 45.096 134.839 45.144 134.551 45.144C133.703 45.144 133.207 44.728 133.159 43.96L133.143 43.432ZM129.079 42.856C129.079 43.528 129.543 44.104 130.567 44.104C132.055 44.104 133.127 42.952 133.127 41.384V40.552H133.111C132.839 40.92 132.455 41.112 131.719 41.272L130.359 41.576C129.575 41.752 129.079 42.168 129.079 42.856ZM139.602 45H138.242V38.12H135.522V36.968H142.322V38.12H139.602V45ZM146.765 36.776C148.925 36.776 150.621 38.2 150.477 41.352H144.253C144.381 43.032 145.341 44.072 146.781 44.072C147.997 44.072 148.861 43.448 149.037 42.44L150.397 42.52C150.077 44.216 148.701 45.176 146.781 45.176C144.461 45.176 142.861 43.432 142.861 40.968C142.861 38.536 144.493 36.776 146.765 36.776ZM144.285 40.312H149.085C148.941 38.6 147.901 37.88 146.765 37.88C145.405 37.88 144.493 38.808 144.285 40.312ZM151.909 45.096C151.701 45.096 151.573 45.08 151.397 45.032V43.88C151.493 43.896 151.557 43.896 151.637 43.896C152.373 43.896 152.805 43.24 152.869 40.84L152.949 36.968H159.013V45H157.637V38.12H154.261L154.197 40.872C154.117 43.896 153.445 45.096 151.909 45.096ZM161.404 45V36.968H162.764V39.592H164.796C166.54 39.592 167.676 40.76 167.676 42.28C167.676 43.864 166.54 45 164.796 45H161.404ZM162.764 43.896H164.668C165.66 43.896 166.316 43.24 166.316 42.296C166.316 41.4 165.66 40.696 164.668 40.696H162.764V43.896ZM170.577 45H169.217V36.968H170.577V40.216H174.545V36.968H175.905V45H174.545V41.4H170.577V45ZM183.253 43.432C182.853 44.456 181.765 45.176 180.373 45.176C178.789 45.176 177.781 44.264 177.781 42.936C177.781 41.608 178.709 40.872 180.197 40.584L181.877 40.248C182.885 40.04 183.205 39.768 183.205 39.272C183.205 38.44 182.501 37.88 181.413 37.88C180.213 37.88 179.477 38.472 179.365 39.496L178.021 39.4C178.229 37.656 179.637 36.776 181.413 36.776C183.253 36.776 184.581 37.72 184.581 39.576V43.608C184.581 43.896 184.757 44.072 185.045 44.072C185.141 44.072 185.285 44.056 185.397 44.024V45.016C185.141 45.096 184.949 45.144 184.661 45.144C183.813 45.144 183.317 44.728 183.269 43.96L183.253 43.432ZM179.189 42.856C179.189 43.528 179.653 44.104 180.677 44.104C182.165 44.104 183.237 42.952 183.237 41.384V40.552H183.221C182.949 40.92 182.565 41.112 181.829 41.272L180.469 41.576C179.685 41.752 179.189 42.168 179.189 42.856ZM191.985 45V41.96H190.017L188.017 45H186.529L188.689 41.816C187.409 41.512 186.737 40.632 186.737 39.448C186.737 38.008 187.857 36.968 189.473 36.968H193.329V45H191.985ZM188.097 39.48C188.097 40.312 188.721 40.872 189.569 40.872H191.985V38.056H189.569C188.721 38.056 188.097 38.648 188.097 39.48ZM204.249 39.896C204.121 38.712 203.353 37.912 202.201 37.912C200.745 37.912 199.753 39.112 199.753 40.984C199.753 42.824 200.745 44.024 202.201 44.024C203.385 44.024 204.201 43.304 204.313 42.056L205.705 42.136C205.497 44.04 204.153 45.176 202.201 45.176C199.993 45.176 198.361 43.416 198.361 40.968C198.361 38.568 199.993 36.776 202.201 36.776C204.185 36.776 205.497 37.976 205.657 39.816L204.249 39.896ZM208.717 45H207.357V36.968H208.717V40.504L212.413 36.968H214.125L210.045 40.808L214.189 45H212.429L208.717 41.256V45ZM218.405 45.176C216.165 45.176 214.533 43.448 214.533 40.968C214.533 38.504 216.165 36.776 218.405 36.776C220.645 36.776 222.277 38.504 222.277 40.968C222.277 43.448 220.645 45.176 218.405 45.176ZM215.925 40.984C215.925 42.856 216.901 44.04 218.405 44.04C219.909 44.04 220.885 42.856 220.885 40.984C220.885 39.096 219.909 37.912 218.405 37.912C216.901 37.912 215.925 39.096 215.925 40.984ZM225.592 48.04H224.232V36.968H225.592V38.408C226.152 37.4 227.112 36.776 228.408 36.776C230.44 36.776 231.912 38.44 231.912 40.968C231.912 43.56 230.44 45.176 228.408 45.176C227.112 45.176 226.152 44.568 225.592 43.56V48.04ZM225.576 40.984C225.576 42.824 226.68 44.04 228.088 44.04C229.56 44.04 230.504 42.84 230.504 40.984C230.504 39.112 229.56 37.912 228.088 37.912C226.68 37.912 225.576 39.112 225.576 40.984ZM237.249 45.176C235.009 45.176 233.377 43.448 233.377 40.968C233.377 38.504 235.009 36.776 237.249 36.776C239.489 36.776 241.121 38.504 241.121 40.968C241.121 43.448 239.489 45.176 237.249 45.176ZM234.769 40.984C234.769 42.856 235.745 44.04 237.249 44.04C238.753 44.04 239.729 42.856 239.729 40.984C239.729 39.096 238.753 37.912 237.249 37.912C235.745 37.912 234.769 39.096 234.769 40.984ZM248.483 39.896C248.355 38.712 247.587 37.912 246.435 37.912C244.979 37.912 243.987 39.112 243.987 40.984C243.987 42.824 244.979 44.024 246.435 44.024C247.619 44.024 248.435 43.304 248.547 42.056L249.939 42.136C249.731 44.04 248.387 45.176 246.435 45.176C244.227 45.176 242.595 43.416 242.595 40.968C242.595 38.568 244.227 36.776 246.435 36.776C248.419 36.776 249.731 37.976 249.891 39.816L248.483 39.896ZM254.54 45H253.18V38.12H250.46V36.968H257.26V38.12H254.54V45ZM258.545 45V36.968H259.905V39.592H261.937C263.681 39.592 264.817 40.76 264.817 42.28C264.817 43.864 263.681 45 261.937 45H258.545ZM259.905 43.896H261.809C262.801 43.896 263.457 43.24 263.457 42.296C263.457 41.4 262.801 40.696 261.809 40.696H259.905V43.896Z" fill="black"/>
<line x1="30.5" y1="88" x2="30.5" y2="137" stroke="black"/>
<path d="M61.408 103V91.8H69.024V93.08H62.848V96.264H66.368C68.352 96.264 69.808 97.704 69.808 99.624C69.808 101.576 68.352 103 66.368 103H61.408ZM62.848 101.736H66.256C67.456 101.736 68.336 100.856 68.336 99.64C68.336 98.424 67.456 97.528 66.256 97.528H62.848V101.736ZM76.5339 101.432C76.1339 102.456 75.0459 103.176 73.6539 103.176C72.0699 103.176 71.0619 102.264 71.0619 100.936C71.0619 99.608 71.9899 98.872 73.4779 98.584L75.1579 98.248C76.1659 98.04 76.4859 97.768 76.4859 97.272C76.4859 96.44 75.7819 95.88 74.6939 95.88C73.4939 95.88 72.7579 96.472 72.6459 97.496L71.3019 97.4C71.5099 95.656 72.9179 94.776 74.6939 94.776C76.5339 94.776 77.8619 95.72 77.8619 97.576V101.608C77.8619 101.896 78.0379 102.072 78.3259 102.072C78.4219 102.072 78.5659 102.056 78.6779 102.024V103.016C78.4219 103.096 78.2299 103.144 77.9419 103.144C77.0939 103.144 76.5979 102.728 76.5499 101.96L76.5339 101.432ZM72.4699 100.856C72.4699 101.528 72.9339 102.104 73.9579 102.104C75.4459 102.104 76.5179 100.952 76.5179 99.384V98.552H76.5019C76.2299 98.92 75.8459 99.112 75.1099 99.272L73.7499 99.576C72.9659 99.752 72.4699 100.168 72.4699 100.856ZM83.0305 103.176C81.1425 103.176 79.7185 102.456 79.4625 100.424L80.8545 100.344C80.9185 101.576 81.7665 102.088 83.0305 102.088C84.1825 102.088 84.9505 101.56 84.9505 100.696C84.9505 99.944 84.4065 99.464 83.3985 99.464H81.6865V98.376H83.3985C84.1665 98.376 84.8385 98.04 84.8385 97.224C84.8385 96.456 84.1825 95.864 83.0305 95.864C81.8145 95.864 81.0305 96.44 80.9505 97.528L79.6065 97.448C79.7985 95.656 81.3185 94.776 83.0305 94.776C84.9185 94.776 86.1825 95.768 86.1825 97.112C86.1825 97.896 85.7345 98.584 84.7585 98.872C85.8465 99.16 86.2945 99.88 86.2945 100.744C86.2945 102.168 85.0465 103.176 83.0305 103.176ZM91.483 103.176C89.243 103.176 87.611 101.448 87.611 98.968C87.611 96.504 89.243 94.776 91.483 94.776C93.723 94.776 95.355 96.504 95.355 98.968C95.355 101.448 93.723 103.176 91.483 103.176ZM89.003 98.984C89.003 100.856 89.979 102.04 91.483 102.04C92.987 102.04 93.963 100.856 93.963 98.984C93.963 97.096 92.987 95.912 91.483 95.912C89.979 95.912 89.003 97.096 89.003 98.984ZM97.3105 103V94.968H101.359C102.783 94.968 103.727 95.864 103.727 97.048C103.727 97.88 103.199 98.584 102.479 98.824C103.407 99.064 103.999 99.784 103.999 100.744C103.999 102.056 102.911 103 101.423 103H97.3105ZM98.6545 101.96H101.231C102.079 101.96 102.623 101.464 102.623 100.68C102.623 99.912 102.079 99.416 101.231 99.416H98.6545V101.96ZM98.6545 98.392H101.151C101.887 98.392 102.383 97.912 102.383 97.192C102.383 96.472 101.887 96.008 101.151 96.008H98.6545V98.392ZM114.688 103H113.328V94.968H114.688V103ZM105.904 103V94.968H107.264V97.592H109.264C111.008 97.592 112.144 98.76 112.144 100.28C112.144 101.864 111.008 103 109.264 103H105.904ZM107.264 101.896H109.168C110.16 101.896 110.816 101.24 110.816 100.296C110.816 99.4 110.16 98.696 109.168 98.696H107.264V101.896ZM118.58 103H117.076V94.968H118.404V101.32L122.388 94.968H123.892V103H122.58V96.664L118.58 103ZM117.892 92.024H119.092C119.188 92.904 119.668 93.384 120.484 93.384C121.3 93.384 121.78 92.904 121.876 92.024H123.076C122.948 93.576 121.892 94.392 120.484 94.392C119.076 94.392 118.02 93.576 117.892 92.024ZM130.796 106.04H129.436V94.968H130.796V96.408C131.356 95.4 132.316 94.776 133.612 94.776C135.644 94.776 137.116 96.44 137.116 98.968C137.116 101.56 135.644 103.176 133.612 103.176C132.316 103.176 131.356 102.568 130.796 101.56V106.04ZM130.78 98.984C130.78 100.824 131.884 102.04 133.292 102.04C134.764 102.04 135.708 100.84 135.708 98.984C135.708 97.112 134.764 95.912 133.292 95.912C131.884 95.912 130.78 97.112 130.78 98.984ZM142.484 94.776C144.644 94.776 146.34 96.2 146.196 99.352H139.972C140.1 101.032 141.06 102.072 142.5 102.072C143.716 102.072 144.58 101.448 144.756 100.44L146.116 100.52C145.796 102.216 144.42 103.176 142.5 103.176C140.18 103.176 138.58 101.432 138.58 98.968C138.58 96.536 140.212 94.776 142.484 94.776ZM140.004 98.312H144.804C144.66 96.6 143.62 95.88 142.484 95.88C141.124 95.88 140.212 96.808 140.004 98.312ZM152.883 103H151.555V99.208L148.243 103H146.691L150.307 98.84L146.771 94.968H148.371L151.555 98.552V94.968H152.883V98.536L156.131 94.968H157.699L154.147 98.808L157.763 103H156.147L152.883 99.224V103ZM160.658 103H159.154V94.968H160.482V101.32L164.466 94.968H165.97V103H164.658V96.664L160.658 103ZM173.637 103H172.421L169.637 96.392V103H168.357V94.968H170.261L173.045 101.672L175.813 94.968H177.701V103H176.437V96.328L173.637 103ZM180.105 102.136C180.105 101.741 180.201 101.464 180.393 101.304C180.585 101.144 180.814 101.064 181.081 101.064C181.358 101.064 181.593 101.144 181.785 101.304C181.988 101.464 182.089 101.741 182.089 102.136C182.089 102.52 181.988 102.797 181.785 102.968C181.593 103.139 181.358 103.224 181.081 103.224C180.814 103.224 180.585 103.139 180.393 102.968C180.201 102.797 180.105 102.52 180.105 102.136ZM180.105 95.288C180.105 94.8827 180.201 94.6 180.393 94.44C180.585 94.28 180.814 94.2 181.081 94.2C181.358 94.2 181.593 94.28 181.785 94.44C181.988 94.6 182.089 94.8827 182.089 95.288C182.089 95.672 181.988 95.9493 181.785 96.12C181.593 96.2907 181.358 96.376 181.081 96.376C180.814 96.376 180.585 96.2907 180.393 96.12C180.201 95.9493 180.105 95.672 180.105 95.288Z" fill="black"/>
<path d="M68.1484 134H61.0234V133.273L64.75 129.055C65.026 128.742 65.2786 128.443 65.5078 128.156C65.7422 127.87 65.9427 127.586 66.1094 127.305C66.276 127.023 66.4062 126.745 66.5 126.469C66.5938 126.188 66.6406 125.898 66.6406 125.602C66.6406 125.258 66.5833 124.943 66.4688 124.656C66.3542 124.37 66.1927 124.122 65.9844 123.914C65.7708 123.711 65.5156 123.555 65.2188 123.445C64.9271 123.331 64.6042 123.273 64.25 123.273C63.849 123.273 63.4922 123.341 63.1797 123.477C62.8672 123.607 62.6042 123.786 62.3906 124.016C62.1719 124.255 62.0052 124.536 61.8906 124.859C61.776 125.177 61.7135 125.526 61.7031 125.906H60.7734C60.7786 125.438 60.8646 124.995 61.0312 124.578C61.1979 124.161 61.4323 123.797 61.7344 123.484C62.0312 123.172 62.3906 122.924 62.8125 122.742C63.2396 122.56 63.7188 122.469 64.25 122.469C64.75 122.469 65.2031 122.544 65.6094 122.695C66.0208 122.841 66.3724 123.049 66.6641 123.32C66.9557 123.596 67.1797 123.924 67.3359 124.305C67.4974 124.685 67.5781 125.107 67.5781 125.57C67.5781 125.945 67.5104 126.312 67.375 126.672C67.2448 127.026 67.0729 127.372 66.8594 127.711C66.6458 128.049 66.4062 128.378 66.1406 128.695C65.875 129.013 65.6094 129.323 65.3438 129.625L62.1641 133.203H68.1484V134ZM71.6484 128.172L72.1953 122.625H77.8828V123.531H72.9922L72.6016 127.336C72.8776 127.143 73.1979 126.992 73.5625 126.883C73.9323 126.768 74.3255 126.711 74.7422 126.711C75.2578 126.711 75.7214 126.802 76.1328 126.984C76.5495 127.167 76.9062 127.419 77.2031 127.742C77.4948 128.065 77.7188 128.453 77.875 128.906C78.0312 129.354 78.1094 129.844 78.1094 130.375C78.1094 130.901 78.0417 131.393 77.9062 131.852C77.7708 132.31 77.5651 132.708 77.2891 133.047C77.0078 133.391 76.6536 133.661 76.2266 133.859C75.8047 134.057 75.3047 134.156 74.7266 134.156C74.2578 134.156 73.8203 134.086 73.4141 133.945C73.013 133.799 72.6615 133.594 72.3594 133.328C72.0521 133.057 71.8021 132.727 71.6094 132.336C71.4219 131.945 71.3021 131.503 71.25 131.008H72.1484C72.2161 131.539 72.3854 131.971 72.6562 132.305C72.9271 132.638 73.276 132.865 73.7031 132.984C74 133.104 74.2995 133.167 74.6016 133.172C74.9089 133.172 75.2135 133.115 75.5156 133C75.849 132.891 76.125 132.711 76.3438 132.461C76.5677 132.211 76.737 131.911 76.8516 131.562C76.9661 131.234 77.0234 130.893 77.0234 130.539C77.0234 130.185 76.9766 129.836 76.8828 129.492C76.7839 129.164 76.6302 128.872 76.4219 128.617C76.2135 128.362 75.9557 128.164 75.6484 128.023C75.4036 127.883 75.1458 127.781 74.875 127.719C74.6094 127.651 74.3281 127.633 74.0312 127.664C73.724 127.69 73.4323 127.763 73.1562 127.883C72.8854 127.997 72.6276 128.164 72.3828 128.383L71.6484 128.172ZM92.9141 130.133H91.375V134H90.4297V125.547H91.375V129.289H92.8906L96.2812 125.547H97.4766L93.7266 129.648L97.8828 134H96.6406L92.9141 130.133ZM103.148 132.727L105.516 125.547H106.641V134H105.727V127.664L103.477 134H102.828L100.523 127.477V134H99.6094V125.547H100.789L103.148 132.727ZM111.102 134.977H110.227L114.977 122.625H115.852L111.102 134.977ZM125.781 134H124.852V130.414C124.471 130.555 124.07 130.664 123.648 130.742C123.227 130.82 122.794 130.862 122.352 130.867C121.81 130.867 121.326 130.807 120.898 130.688C120.477 130.562 120.12 130.37 119.828 130.109C119.531 129.854 119.305 129.526 119.148 129.125C118.997 128.724 118.919 128.245 118.914 127.688V125.547H119.844V127.688C119.849 128.099 119.904 128.453 120.008 128.75C120.112 129.047 120.263 129.292 120.461 129.484C120.669 129.688 120.932 129.836 121.25 129.93C121.573 130.023 121.94 130.068 122.352 130.062C122.565 130.062 122.786 130.055 123.016 130.039C123.25 130.018 123.482 129.987 123.711 129.945C123.909 129.914 124.104 129.872 124.297 129.82C124.495 129.768 124.68 129.706 124.852 129.633V125.547H125.781V134Z" fill="black"/>
<path d="M65.456 171.888C63.696 171.888 62.384 172.992 62.176 174.784L60.672 174.704C60.992 172.208 62.864 170.624 65.456 170.624C68.48 170.624 70.496 173.008 70.496 176.384C70.496 179.824 68.464 182.176 65.392 182.176C62.784 182.176 60.928 180.816 60.624 178.208L62.176 178.128C62.352 179.888 63.616 180.912 65.392 180.912C67.44 180.912 68.8 179.376 68.976 176.928H63.856V175.68H68.96C68.72 173.376 67.376 171.888 65.456 171.888ZM73.858 182H72.498V173.968H73.858V177.504L77.554 173.968H79.266L75.186 177.808L79.33 182H77.57L73.858 178.256V182ZM83.5455 182.176C81.3055 182.176 79.6735 180.448 79.6735 177.968C79.6735 175.504 81.3055 173.776 83.5455 173.776C85.7855 173.776 87.4175 175.504 87.4175 177.968C87.4175 180.448 85.7855 182.176 83.5455 182.176ZM81.0655 177.984C81.0655 179.856 82.0415 181.04 83.5455 181.04C85.0495 181.04 86.0255 179.856 86.0255 177.984C86.0255 176.096 85.0495 174.912 83.5455 174.912C82.0415 174.912 81.0655 176.096 81.0655 177.984ZM90.733 182H89.373V173.968H90.733V177.216H94.701V173.968H96.061V182H94.701V178.4H90.733V182ZM101.889 182.176C99.6493 182.176 98.0173 180.448 98.0173 177.968C98.0173 175.504 99.6493 173.776 101.889 173.776C104.129 173.776 105.761 175.504 105.761 177.968C105.761 180.448 104.129 182.176 101.889 182.176ZM99.4093 177.984C99.4093 179.856 100.385 181.04 101.889 181.04C103.393 181.04 104.369 179.856 104.369 177.984C104.369 176.096 103.393 174.912 101.889 174.912C100.385 174.912 99.4093 176.096 99.4093 177.984ZM112.997 182H111.781L108.997 175.392V182H107.717V173.968H109.621L112.405 180.672L115.173 173.968H117.061V182H115.797V175.328L112.997 182ZM120.811 182H119.451V173.968H120.811V177.216H124.779V173.968H126.139V182H124.779V178.4H120.811V182ZM137.313 182H135.953V173.968H137.313V182ZM128.529 182V173.968H129.889V176.592H131.889C133.633 176.592 134.769 177.76 134.769 179.28C134.769 180.864 133.633 182 131.889 182H128.529ZM129.889 180.896H131.793C132.785 180.896 133.441 180.24 133.441 179.296C133.441 178.4 132.785 177.696 131.793 177.696H129.889V180.896ZM141.205 182H139.701V173.968H141.029V180.32L145.013 173.968H146.517V182H145.205V175.664L141.205 182ZM140.517 171.024H141.717C141.813 171.904 142.293 172.384 143.109 172.384C143.925 172.384 144.405 171.904 144.501 171.024H145.701C145.573 172.576 144.517 173.392 143.109 173.392C141.701 173.392 140.645 172.576 140.517 171.024ZM153.421 185.04H152.061V173.968H153.421V175.408C153.981 174.4 154.941 173.776 156.237 173.776C158.269 173.776 159.741 175.44 159.741 177.968C159.741 180.56 158.269 182.176 156.237 182.176C154.941 182.176 153.981 181.568 153.421 180.56V185.04ZM153.405 177.984C153.405 179.824 154.509 181.04 155.917 181.04C157.389 181.04 158.333 179.84 158.333 177.984C158.333 176.112 157.389 174.912 155.917 174.912C154.509 174.912 153.405 176.112 153.405 177.984ZM165.109 173.776C167.269 173.776 168.965 175.2 168.821 178.352H162.597C162.725 180.032 163.685 181.072 165.125 181.072C166.341 181.072 167.205 180.448 167.381 179.44L168.741 179.52C168.421 181.216 167.045 182.176 165.125 182.176C162.805 182.176 161.205 180.432 161.205 177.968C161.205 175.536 162.837 173.776 165.109 173.776ZM162.629 177.312H167.429C167.285 175.6 166.245 174.88 165.109 174.88C163.749 174.88 162.837 175.808 162.629 177.312ZM175.508 182H174.18V178.208L170.868 182H169.316L172.932 177.84L169.396 173.968H170.996L174.18 177.552V173.968H175.508V177.536L178.756 173.968H180.324L176.772 177.808L180.388 182H178.772L175.508 178.224V182ZM183.283 182H181.779V173.968H183.107V180.32L187.091 173.968H188.595V182H187.283V175.664L183.283 182ZM196.262 182H195.046L192.262 175.392V182H190.982V173.968H192.886L195.67 180.672L198.438 173.968H200.326V182H199.062V175.328L196.262 182Z" fill="black"/>
<path d="M65.7969 213H64.8672V202.82L61.7109 204.164V203.266L65.6641 201.625H65.7969V213ZM78.0078 208.5C78.0078 209.141 77.9349 209.742 77.7891 210.305C77.6484 210.867 77.4349 211.359 77.1484 211.781C76.862 212.203 76.4948 212.539 76.0469 212.789C75.599 213.034 75.0651 213.156 74.4453 213.156C73.9401 213.156 73.487 213.076 73.0859 212.914C72.6849 212.747 72.3411 212.508 72.0547 212.195C71.6328 211.758 71.3255 211.216 71.1328 210.57C70.9453 209.924 70.8516 209.234 70.8516 208.5V206.125C70.8516 205.49 70.9245 204.885 71.0703 204.312C71.2161 203.74 71.4375 203.242 71.7344 202.82C72.026 202.398 72.3932 202.068 72.8359 201.828C73.2839 201.583 73.8151 201.461 74.4297 201.461C74.9349 201.461 75.3906 201.547 75.7969 201.719C76.2031 201.891 76.5469 202.13 76.8281 202.438C77.2292 202.859 77.5234 203.398 77.7109 204.055C77.9036 204.706 78.0026 205.396 78.0078 206.125V208.5ZM71.875 209.18L76.9297 204.625C76.862 204.271 76.7604 203.951 76.625 203.664C76.4948 203.372 76.3281 203.122 76.125 202.914C75.9219 202.706 75.6797 202.547 75.3984 202.438C75.1172 202.323 74.7943 202.266 74.4297 202.266C73.9609 202.266 73.5677 202.354 73.25 202.531C72.9375 202.708 72.6693 202.958 72.4453 203.281C72.2161 203.599 72.0469 203.997 71.9375 204.477C71.8333 204.956 71.7812 205.453 71.7812 205.969V207.961C71.7812 208.159 71.7891 208.362 71.8047 208.57C71.8203 208.773 71.8438 208.977 71.875 209.18ZM77.0781 208.648V206.805C77.0729 206.638 77.0651 206.435 77.0547 206.195C77.0443 205.956 77.026 205.737 77 205.539L71.9531 210.086C72.026 210.43 72.1302 210.745 72.2656 211.031C72.4062 211.312 72.5807 211.552 72.7891 211.75C72.9922 211.943 73.2292 212.094 73.5 212.203C73.776 212.307 74.0911 212.359 74.4453 212.359C74.9036 212.359 75.2943 212.266 75.6172 212.078C75.9453 211.891 76.2083 211.641 76.4062 211.328C76.6458 210.99 76.8151 210.589 76.9141 210.125C77.0182 209.661 77.0729 209.169 77.0781 208.648ZM92.9141 209.133H91.375V213H90.4297V204.547H91.375V208.289H92.8906L96.2812 204.547H97.4766L93.7266 208.648L97.8828 213H96.6406L92.9141 209.133ZM103.148 211.727L105.516 204.547H106.641V213H105.727V206.664L103.477 213H102.828L100.523 206.477V213H99.6094V204.547H100.789L103.148 211.727ZM111.102 213.977H110.227L114.977 201.625H115.852L111.102 213.977ZM125.781 213H124.852V209.414C124.471 209.555 124.07 209.664 123.648 209.742C123.227 209.82 122.794 209.862 122.352 209.867C121.81 209.867 121.326 209.807 120.898 209.688C120.477 209.562 120.12 209.37 119.828 209.109C119.531 208.854 119.305 208.526 119.148 208.125C118.997 207.724 118.919 207.245 118.914 206.688V204.547H119.844V206.688C119.849 207.099 119.904 207.453 120.008 207.75C120.112 208.047 120.263 208.292 120.461 208.484C120.669 208.688 120.932 208.836 121.25 208.93C121.573 209.023 121.94 209.068 122.352 209.062C122.565 209.062 122.786 209.055 123.016 209.039C123.25 209.018 123.482 208.987 123.711 208.945C123.909 208.914 124.104 208.872 124.297 208.82C124.495 208.768 124.68 208.706 124.852 208.633V204.547H125.781V213Z" fill="black"/>
<line x1="30.5" y1="167" x2="30.5" y2="216" stroke="black"/>
</svg>
